<?xml version="1.0" encoding="UTF-8"?>
<svg width="128px" height="128px" viewBox="0 0 128 128" version="1.1" xmlns="http://www.w3.org/2000/svg" xmlns:xlink="http://www.w3.org/1999/xlink">
    <!-- Generator: Sketch 49 (51002) - http://www.bohemiancoding.com/sketch -->
    <title>128x128</title>
    <desc>Created with Sketch.</desc>
    <defs>
        <path d="M79.4942962,91.5566657 C79.9645502,91.5000595 80.6654459,91.4176982 81.5969835,91.3095819 C82.4744188,91.0669089 83.0778014,90.8855871 83.4071314,90.7656166 C83.6309794,90.6840716 83.9160683,90.587856 84.2890686,90.3887867 C84.4062455,90.3262496 84.6030156,90.2046988 84.8793788,90.0241342 C85.2329145,89.7287702 85.4760053,89.5137707 85.6086511,89.3791359 C85.8119912,89.1727467 85.9490295,88.9738438 86.0818032,88.8012672 C86.3444961,88.459824 86.7051051,87.9041576 87.16363,87.1342679 C87.6776623,85.9908598 88.0031668,85.2025337 88.1401437,84.7692894 L89.0113769,82.1618676 C89.3050897,80.8158854 89.5200265,79.6165272 89.6561872,78.5637928 L90.0507553,75.002627 L90.3933808,72.2793994 C90.5049076,70.7805401 90.5700023,69.8308558 90.5886651,69.4303465 C90.6073278,69.0298372 90.6208371,68.4358697 90.6291929,67.648444 C90.6578187,66.8876501 90.6629696,65.4772608 90.6446455,63.4172761 C90.6401131,62.9077543 90.6342261,62.4192741 90.6269844,61.9518358 C90.5595651,61.7014675 90.5152623,61.4415773 90.4966163,61.1749271 L89.7412805,51.2912056 C89.5919944,49.1563154 91.2016446,47.3046247 93.3365348,47.1553386 L93.5859258,47.1378995 C95.7208161,46.9886134 97.5725068,48.5982636 97.7217929,50.7331539 L98.4193576,60.7087944 C98.4321384,60.8915688 98.432027,61.0722676 98.4197974,61.25 L100.668282,61.25 C101.793306,61.25 102.705319,62.4812169 102.705319,64 L102.705319,66.75 C102.705319,68.2687831 101.793306,69.5 100.668282,69.5 L98.3928736,69.5 L98.3928736,69.6620756 L98.18176,73.8528706 L97.9864238,77.3256665 C97.873925,78.3729024 97.784076,79.202254 97.7168766,79.8137215 C97.6496772,80.4251889 97.501962,81.3337794 97.2737308,82.5394929 C97.1277054,83.3461631 97.0177447,83.9125223 96.9438489,84.2385705 C96.7560434,85.0672187 96.6124551,85.6698659 96.5130841,86.0465121 C96.3550637,86.6454569 96.078011,87.5478801 95.6819258,88.7537818 C95.3655234,89.6928044 95.0388685,90.4924273 94.7019611,91.1526505 C94.3650538,91.8128737 93.7806588,92.7985971 92.9487762,94.1098206 C92.294147,95.1270818 91.5785767,95.9295839 90.8020652,96.517327 C90.0255537,97.1050701 88.7393017,97.8177513 86.9433094,98.6553705 C85.3400575,99.2337743 84.0768589,99.627265 83.1537136,99.8358426 C82.3354017,100.020734 80.9361552,100.190651 78.9559739,100.345593 L78.9559739,128 L45.9559739,128 L45.9559739,100.530182 C43.3090186,100.33154 41.5520325,100.13125 40.6850156,99.9293127 C39.794085,99.721806 38.5750997,99.3297521 37.0280596,98.753151 C35.2952681,97.9175011 34.0544169,97.2062005 33.3055059,96.6192492 C32.556595,96.032298 31.8667773,95.2304566 31.2360528,94.2137252 C30.4345702,92.90317 29.8716099,91.917899 29.547172,91.2579123 C29.222734,90.5979256 28.9083636,89.7984899 28.6040606,88.8596051 C28.2231593,87.653868 27.9567991,86.7515443 27.8049801,86.1526341 C27.7095088,85.7760096 27.5716267,85.1733783 27.391334,84.3447403 C27.3203942,84.0186961 27.2149313,83.4523214 27.0749453,82.6456163 C26.8560864,81.4398626 26.7145934,80.5312123 26.6504664,79.9196653 C26.5863393,79.3081183 26.5006125,78.4786571 26.3932858,77.4312818 L26.2089482,73.9578068 L26.0102551,69.7661623 L26.013307,67.2633997 C25.9939253,65.3048452 25.9957158,63.8365076 26.0186784,62.8583869 C26.041641,61.8802661 26.1115072,60.2962964 26.2282771,58.1064779 L26.3174706,58.1095441 L26.3728114,56.9102667 L26.556574,54.9169011 L27.3275747,49.2512837 C27.5064311,48.2013385 27.6488037,47.3698948 27.7546924,46.7569523 C27.8605812,46.1440099 28.0640147,45.2366085 28.3649929,44.0347484 C28.5599359,43.2301851 28.7039661,42.6658304 28.7970836,42.3416844 C29.0337407,41.5178708 29.2125978,40.9192343 29.3336551,40.545775 C29.5261611,39.9518981 29.8537311,39.059863 30.3163651,37.8696697 C30.6842934,36.9434424 31.0527077,36.1587575 31.421608,35.5156148 C31.7905082,34.8724722 32.4196577,33.9179995 33.3090563,32.6521967 C34.007965,31.6708265 34.7510981,30.9107054 35.5384557,30.3718333 C36.3258133,29.8329612 37.6124633,29.203887 39.3984059,28.4846106 C40.9812843,28.0135724 42.22424,27.7053081 43.1272729,27.5598176 C43.6137268,27.4814435 44.3064088,27.4238104 45.205319,27.3869184 L45.205319,0 L78.205319,0 L78.205319,28.25 L78.830319,28.25 C80.9704224,28.25 82.705319,29.9848966 82.705319,32.125 L82.705319,32.375 C82.705319,34.5151034 80.9704224,36.25 78.830319,36.25 L46.080319,36.25 C45.8427527,36.25 45.6101795,36.2286217 45.3844184,36.1876839 C45.1636122,36.2096787 44.5763107,36.2680071 43.6225141,36.3626688 C43.0476932,36.4925849 42.5976713,36.606507 42.2724483,36.704435 C42.0513918,36.7709974 41.7703726,36.8480538 41.3977687,37.0228006 C41.2807163,37.0776968 41.0830418,37.186585 40.8047454,37.349465 C40.4444014,37.6228613 40.1958275,37.8228769 40.0590236,37.9495118 C39.8493092,38.1436375 39.7039476,38.3348841 39.5644655,38.4998378 C39.2885,38.8261991 38.903816,39.3620468 38.4104133,40.1073809 C37.924281,41.2488008 37.6006734,42.0334992 37.4395905,42.461476 C37.1873339,43.1316899 37.0763705,43.6317746 36.9641525,43.9675488 C36.7444465,44.6249447 36.4650907,45.6229247 36.1260851,46.9614889 L34.8131787,52.1585231 L34.2998503,54.8852579 C34.091518,56.3914906 33.9648806,57.34624 33.9199384,57.7495063 C33.8749961,58.1527726 33.8219893,58.7518296 33.7609179,59.5466774 C33.6911377,60.2254691 33.6047815,61.4201655 33.5018495,63.1307668 C33.500435,63.2559416 33.4991012,63.3824402 33.4978479,63.5102626 C33.4776456,65.5708138 33.4808979,66.9815693 33.5076048,67.7425293 C33.5147108,68.5301528 33.5270279,69.1242608 33.544556,69.5248531 C33.5620842,69.9254454 33.6237669,70.8753012 33.7296043,72.3744204 L34.0570463,75.0979495 L34.4336104,78.6595747 C34.563773,79.7124211 34.7698056,80.911834 35.051708,82.2578135 L35.8895979,84.8648615 C36.0213041,85.2980531 36.3345778,86.0861905 36.8294191,87.2292736 C37.2711303,87.9988074 37.6185768,88.5541808 37.8717586,88.8953938 C37.999725,89.067854 38.1317763,89.2666423 38.3278248,89.472838 C38.4557141,89.6073466 38.6901265,89.8221064 39.0310622,90.1171172 C39.2976371,90.2973924 39.4874466,90.4187354 39.6004905,90.481146 C39.9603342,90.679813 40.2354357,90.7757063 40.4514344,90.8569997 C40.7692163,90.9766003 41.3297573,91.1502747 42.1330575,91.3780228 C42.4485175,91.4585553 42.6733174,91.5103019 42.8074573,91.5332624 C43.135723,91.5894511 43.4008166,91.5970715 43.6095358,91.6005711 C43.8197627,91.604096 44.3108258,91.6137798 45.0827252,91.6296226 C45.4010206,91.545063 45.7354073,91.5 46.080319,91.5 L78.830319,91.5 C79.0567036,91.5 79.278554,91.5194132 79.4942962,91.5566657 Z M61.955319,60.0931458 L92.7590663,29.2893985 C94.2723479,27.7761168 96.7258622,27.7761168 98.2391439,29.2893985 L98.4159206,29.4661752 C99.9292022,30.9794568 99.9292022,33.4329711 98.4159206,34.9462527 L64.6515718,68.7106015 C63.1382901,70.2238832 60.6847758,70.2238832 59.1714942,68.7106015 L58.9947175,68.5338248 C58.8272715,68.3663789 58.6783536,68.187421 58.5479637,67.9994989 L48.058426,57.5099612 C46.5451444,55.9966796 46.5451444,53.5431653 48.058426,52.0298837 L48.2352027,51.853107 C49.7484843,50.3398253 52.2019986,50.3398253 53.7152803,51.853107 L61.955319,60.0931458 Z" id="path-1"></path>
    </defs>
    <g id="128x128" stroke="none" stroke-width="1" fill="none" fill-rule="evenodd">
        <g id="Combined-Shape">
            <use fill="#000000" fill-rule="evenodd" xlink:href="#path-1"></use>
            <path stroke="#000000" stroke-width="1" d="M77.705319,0.5 L45.705319,0.5 L45.705319,27.8668189 L45.2258222,27.8864979 C44.344987,27.922648 43.6702063,27.9787917 43.2068039,28.0534519 C42.328841,28.1949033 41.1049818,28.4984315 39.5851976,28.9484089 C37.8300732,29.6552734 36.5719177,30.270416 35.8208525,30.7844494 C35.0851833,31.2879456 34.3829003,32.0062829 33.718165,32.9396512 C32.8368484,34.1939516 32.214928,35.1374571 31.8553251,35.7643907 C31.4992434,36.3851854 31.1407284,37.1487859 30.7823964,38.0508184 C30.3229371,39.2328443 29.9982186,40.117114 29.8092907,40.6999529 C29.6903763,41.0668015 29.5128704,41.660915 29.2776475,42.4797361 C29.1869918,42.7953127 29.0443205,43.3543426 28.8500154,44.1562111 C28.5517946,45.3470603 28.3507373,46.2438624 28.2473943,46.8420689 C28.1415824,47.4545665 27.9992707,48.2856548 27.8230083,49.3187043 L27.0544628,54.9628 L26.8722799,56.9333148 L26.7941602,58.6262263 L26.7016964,58.6230477 C26.6006752,60.5560262 26.539616,61.9723901 26.5185406,62.8701218 C26.4957358,63.8415224 26.4939513,65.3049954 26.5133066,67.2640094 L26.5096943,69.7424878 L26.7082456,73.931309 L26.8906812,77.3803127 C26.9979711,78.4273294 27.0836604,79.2564278 27.1477399,79.867521 C27.2102911,80.46404 27.3500959,81.3618494 27.5675831,82.5601298 C27.7064298,83.3602692 27.8108769,83.9211887 27.8799033,84.2384388 C28.059082,85.0619564 28.1959017,85.6599448 28.2896505,86.029774 C28.4385951,86.6173453 28.7025952,87.5116738 29.0797018,88.7054446 C29.3770776,89.6229567 29.6828733,90.4005869 29.9958862,91.0373322 C30.3120542,91.6804958 30.8684824,92.6543347 31.6609385,93.9501495 C32.2623336,94.9196018 32.9141293,95.6772465 33.613936,96.2257128 C34.3285227,96.7857628 35.5421242,97.4814429 37.2026813,98.284635 C38.731454,98.8544276 39.9319338,99.2405297 40.7984349,99.4423465 C41.6321306,99.6365227 43.3719681,99.8348577 45.9933915,100.031584 L46.4559739,100.066299 L46.4559739,127.5 L78.4559739,127.5 L78.4559739,99.8831874 L78.9169699,99.8471162 C80.8747391,99.6939278 82.2548059,99.5263403 83.0435201,99.3481364 C83.9429614,99.1449145 85.1881557,98.7570322 86.7319724,98.2022296 C88.4986419,97.378286 89.7579963,96.6805082 90.500307,96.1186517 C91.2272049,95.5684612 91.9038895,94.8095689 92.5265765,93.8419635 C93.3507785,92.5428462 93.9283571,91.5686204 94.2565962,90.9253839 C94.5814672,90.2887478 94.8990461,89.5113422 95.2068936,88.5977548 C95.6001421,87.4004896 95.8746785,86.5062626 96.029627,85.918961 C96.1271547,85.5493018 96.2696045,84.9514328 96.456216,84.128053 C96.5280585,83.8110644 96.6369269,83.250331 96.7824549,82.4464986 C97.0084808,81.252435 97.1543766,80.3550362 97.2198689,79.7591011 C97.2870167,79.148103 97.3768252,78.3191264 97.4872129,77.2975871 L97.6823932,73.8277147 L97.8928736,69.6620756 L97.8928736,69 L100.668282,69 C101.479094,69 102.205319,68.0195966 102.205319,66.75 L102.205319,64 C102.205319,62.7304034 101.479094,61.75 100.668282,61.75 L97.8842106,61.75 L97.9209769,61.2156767 C97.9317184,61.0595699 97.9316468,60.9019979 97.9205756,60.7436726 L97.2230108,50.7680321 C97.0929875,48.9086116 95.4802246,47.5066582 93.6208041,47.6366815 L93.3714131,47.6541206 C91.5119925,47.784144 90.1100391,49.3969069 90.2398267,51.2531056 L90.9953983,61.1400488 C91.0116065,61.3718359 91.0500338,61.59993 91.1097862,61.8218266 L91.1269244,61.9440905 C91.1341835,62.4126528 91.1400838,62.9022301 91.1446257,63.4128287 C91.1630164,65.4803014 91.1578449,66.8963589 91.1291647,67.6537494 C91.1207507,68.4466622 91.1071213,69.0459123 91.0881231,69.45362 C91.0691604,69.8605669 91.003909,70.8125373 90.8894698,72.3418153 L90.5477142,75.0576888 L90.1520567,78.6279286 C90.0139191,79.6959477 89.7964892,80.9092179 89.4856043,82.3203239 L88.6168835,84.9200181 C88.472256,85.3774608 88.1414205,86.1786977 87.5932133,87.3901158 C87.1253877,88.175622 86.7555121,88.7455675 86.4780903,89.1061549 C86.4673346,89.1201349 86.3172586,89.3197149 86.2648807,89.3863918 C86.1655806,89.5128008 86.0709187,89.6223646 85.9648256,89.7300485 C85.8177761,89.879303 85.5651469,90.1027387 85.1528609,90.4427122 C84.864827,90.630902 84.6582855,90.7584889 84.5244877,90.8298964 C84.1993114,91.0034423 84.059585,91.0600793 83.5782728,91.2354151 C83.232869,91.3612411 82.619904,91.5454425 81.6546276,91.806248 C80.723735,91.9142894 80.0234578,91.996578 79.5540517,92.0530822 L79.4092195,92.0493745 C79.2194742,92.0166109 79.0260642,92 78.830319,92 L46.080319,92 C45.7834517,92 45.4921002,92.03821 45.2111042,92.1128605 L45.0724652,92.1295174 C44.3012518,92.1136886 43.8105103,92.1040111 43.6011534,92.1005008 C43.2663189,92.0948866 43.0267072,92.0780628 42.7230999,92.0260948 C42.5722419,92.0002727 42.3370187,91.9461269 41.9966751,91.8590632 C41.1807193,91.627727 40.6097293,91.4508152 40.2753146,91.3249547 C39.8096705,91.1497046 39.67397,91.092854 39.3588283,90.9188667 C39.2289675,90.8471715 39.0293152,90.7195362 38.7038926,90.4952178 C38.3514214,90.1902253 38.1075542,89.9668035 37.9654678,89.8173629 C37.8629472,89.709536 37.7715527,89.5998865 37.6757303,89.4734143 C37.6252211,89.4067492 37.4805708,89.207281 37.470223,89.1933353 C37.2027956,88.8329235 36.8464394,88.2633085 36.3705688,87.4279102 C35.8684371,86.2679862 35.5501202,85.4671609 35.4135789,85.0178512 L34.5623263,82.3603098 C34.2777292,81.0014645 34.0693805,79.7885679 33.9363818,78.7121458 L33.5606212,75.1576333 L33.2308458,72.4096326 C33.1246604,70.9055838 33.0628342,69.9535193 33.045034,69.5467099 C33.0272018,69.1391677 33.014779,68.5399606 33.0079124,67.7600666 C32.9808637,66.9893655 32.9775988,65.5731397 32.997872,63.5053607 C32.9997958,63.3139203 32.9997958,63.3139203 33.0027523,63.1007346 C33.1060859,61.3834597 33.1928351,60.1833242 33.2623873,59.5083733 C33.3238598,58.708305 33.3773109,58.1042267 33.4230148,57.6941263 C33.4686385,57.2847452 33.5955637,56.3278257 33.8084818,54.7927541 L34.3284085,52.0360575 L35.641388,46.8387343 C35.983187,45.4891402 36.2654776,44.4806756 36.4899353,43.8090622 C36.4912083,43.8052475 36.4912083,43.8052475 36.4924875,43.8013922 C36.4513736,43.9254834 36.7907158,42.7660372 36.971639,42.2853473 C37.1359863,41.8486973 37.4615716,41.0592032 37.9934901,39.8313825 C38.4968081,39.0710704 38.8912725,38.5215991 39.1826649,38.1769938 C39.1939611,38.1636347 39.3519262,37.972622 39.4068623,37.9089592 C39.511081,37.788185 39.6097319,37.6840731 39.7193707,37.5825841 C39.8713612,37.4418915 40.1299793,37.2337938 40.5521849,36.9179408 C40.8428624,36.7478144 41.0508572,36.6332413 41.1854634,36.5701126 C41.5120544,36.4169453 41.6515051,36.3692323 42.1282868,36.2256684 C42.46654,36.1238168 42.9270255,36.0072459 43.573133,35.8651133 C44.5268575,35.7704587 45.1141373,35.7121325 45.3348578,35.6901462 L45.4736297,35.6957069 C45.6722562,35.7317243 45.8749996,35.75 46.080319,35.75 L78.830319,35.75 C80.6942801,35.75 82.205319,34.238961 82.205319,32.375 L82.205319,32.125 C82.205319,30.261039 80.6942801,28.75 78.830319,28.75 L77.705319,28.75 L77.705319,0.5 Z M93.1126197,29.6429519 L61.955319,60.8002525 L53.3617269,52.2066604 C52.0437074,50.8886409 49.9067756,50.8886409 48.5887561,52.2066604 L48.4119794,52.3834371 C47.0939599,53.7014565 47.0939599,55.8383883 48.4119794,57.1564078 L58.9587629,67.7144656 C59.0734783,67.879797 59.2035493,68.0355498 59.3482709,68.1802714 L59.5250476,68.3570481 C60.8430671,69.6750676 62.9799989,69.6750676 64.2980184,68.3570481 L98.0623672,34.5926993 C99.3803867,33.2746798 99.3803867,31.137748 98.0623672,29.8197286 L97.8855905,29.6429519 C96.567571,28.3249324 94.4306392,28.3249324 93.1126197,29.6429519 Z"></path>
        </g>
    </g>
</svg>