<?xml version="1.0" standalone="no"?>
<!DOCTYPE svg PUBLIC "-//W3C//DTD SVG 20010904//EN"
 "http://www.w3.org/TR/2001/REC-SVG-20010904/DTD/svg10.dtd">
<svg version="1.0" xmlns="http://www.w3.org/2000/svg"
 width="1362.000000pt" height="1362.000000pt" viewBox="0 0 1362.000000 1362.000000"
 preserveAspectRatio="xMidYMid meet">
<metadata>
Created by potrace 1.14, written by Peter Selinger 2001-2017
</metadata>
<g transform="translate(0.000000,1362.000000) scale(0.100000,-0.100000)"
fill="#000000" stroke="none">
<path d="M6195 13306 c-33 -7 -70 -18 -83 -25 -13 -7 -55 -15 -95 -18 -52 -4
-86 -14 -122 -34 -48 -27 -53 -27 -123 -19 -40 5 -78 12 -84 16 -5 3 -20 2
-31 -4 -12 -6 -40 -19 -62 -28 -22 -10 -57 -30 -78 -45 -21 -15 -53 -31 -70
-34 -18 -4 -58 -16 -90 -27 -33 -11 -69 -21 -80 -23 -58 -6 -117 -18 -162 -33
-67 -21 -232 -108 -273 -144 -18 -15 -43 -28 -55 -29 -49 -2 -68 -6 -84 -21
-10 -9 -40 -27 -68 -41 -27 -14 -81 -50 -120 -81 -68 -54 -72 -56 -130 -55
-53 1 -71 -4 -139 -40 -43 -22 -96 -59 -117 -81 -21 -22 -46 -40 -55 -40 -8 0
-33 -17 -55 -37 -22 -21 -66 -63 -99 -93 -33 -30 -124 -118 -203 -196 -154
-153 -211 -196 -272 -210 -34 -8 -44 -17 -67 -59 -27 -50 -82 -105 -104 -105
-16 0 -35 -32 -73 -124 -18 -43 -42 -88 -53 -100 -42 -45 -97 -139 -118 -200
-11 -35 -37 -102 -57 -148 -19 -46 -46 -117 -59 -158 -33 -106 -81 -267 -95
-320 -6 -25 -15 -54 -20 -65 -9 -21 -26 -81 -54 -195 -9 -36 -23 -87 -31 -115
-7 -27 -18 -81 -24 -120 -5 -38 -26 -122 -45 -185 -19 -63 -35 -125 -35 -138
0 -13 -4 -31 -9 -40 -5 -9 -11 -39 -14 -67 -3 -27 -10 -75 -16 -105 -5 -30
-12 -82 -15 -115 -3 -33 -12 -109 -20 -170 -26 -198 -36 -302 -36 -388 0 -46
-4 -108 -9 -138 -5 -30 -14 -115 -21 -189 -6 -74 -20 -205 -30 -290 -28 -231
-46 -454 -60 -755 -6 -112 -15 -201 -25 -235 -9 -30 -18 -89 -19 -130 -2 -41
-4 -89 -4 -106 -1 -20 -13 -43 -30 -60 -16 -16 -48 -64 -73 -108 -74 -133
-117 -151 -217 -95 -56 31 -191 64 -223 54 -50 -16 -88 -139 -96 -315 -7 -153
4 -212 55 -288 35 -54 37 -61 37 -137 0 -44 -3 -98 -7 -120 -4 -22 -10 -62
-13 -89 -4 -28 -8 -53 -11 -58 -3 -4 -7 -16 -9 -27 -2 -10 -12 -38 -23 -63
-22 -46 -22 -77 -2 -238 5 -41 12 -109 15 -150 15 -193 44 -389 63 -428 5 -9
15 -39 21 -67 11 -46 94 -223 109 -235 9 -6 30 -36 140 -198 47 -70 113 -154
147 -187 78 -78 205 -179 269 -215 101 -58 112 -73 135 -191 11 -59 34 -136
50 -172 16 -36 33 -86 36 -110 10 -65 44 -99 104 -105 46 -4 51 -2 94 37 85
78 118 209 99 389 -7 59 -12 115 -12 125 0 18 85 117 101 117 27 0 93 -184
129 -360 21 -103 102 -457 135 -595 52 -214 85 -380 149 -761 46 -273 87 -562
116 -829 6 -49 12 -106 15 -125 3 -19 9 -73 15 -120 5 -47 14 -114 19 -150 5
-36 12 -90 16 -120 3 -30 8 -62 10 -70 2 -8 6 -46 10 -85 3 -38 8 -86 10 -105
24 -204 31 -341 18 -371 -21 -51 -48 -55 -166 -25 -90 23 -112 25 -152 16 -78
-18 -146 -59 -230 -141 -84 -82 -79 -79 -225 -108 -33 -7 -89 -31 -136 -59
-52 -30 -104 -52 -145 -60 -35 -8 -100 -24 -144 -37 -44 -14 -100 -29 -125
-34 -46 -10 -145 -41 -190 -59 -89 -36 -110 -47 -110 -59 0 -11 483 -13 2958
-13 l2959 0 22 24 c13 14 20 29 16 35 -3 6 1 14 9 17 9 3 16 11 16 18 0 6 14
19 30 28 17 10 33 25 37 35 6 18 38 53 48 53 3 0 14 9 25 20 11 11 18 20 15
20 -3 0 17 23 45 51 27 28 50 56 50 62 0 7 18 23 40 37 22 14 43 33 46 42 3 9
13 19 23 23 9 3 38 25 64 49 26 24 50 40 53 37 4 -3 4 -1 1 5 -7 11 105 124
123 124 5 0 6 7 3 17 -4 9 -2 14 3 11 5 -3 34 21 65 53 31 32 53 59 50 59 -3
0 10 14 29 30 19 16 38 30 42 30 4 0 10 9 13 20 3 11 13 20 21 20 8 0 14 5 14
10 0 6 3 9 8 9 27 -4 41 6 60 46 12 25 29 45 37 45 8 0 15 4 15 8 0 5 11 14
25 20 14 7 29 22 34 34 5 13 29 46 55 73 25 28 46 55 46 61 0 20 50 65 63 58
6 -4 9 -4 5 0 -8 9 23 47 33 40 4 -2 6 4 5 13 -2 10 10 31 26 48 15 16 28 34
28 38 0 5 4 5 10 2 6 -4 7 1 3 11 -4 12 -3 15 5 10 7 -4 12 -1 12 8 0 9 9 21
20 28 11 7 20 20 20 29 0 9 7 19 15 23 8 3 15 12 15 20 0 8 11 32 25 52 22 32
30 60 26 87 0 4 3 7 8 7 5 0 16 17 25 38 9 20 20 44 25 52 10 16 37 94 50 147
11 39 34 93 41 93 3 0 6 10 7 21 1 12 9 37 18 56 9 19 19 46 21 60 3 15 7 30
10 35 5 8 8 22 18 90 8 53 21 78 120 233 92 143 186 323 249 475 48 118 107
274 112 298 2 12 8 29 14 40 5 10 17 45 25 78 8 32 29 111 46 174 17 63 33
124 35 135 8 37 28 65 47 65 10 0 35 15 55 33 21 19 59 46 85 61 93 54 172
176 187 291 9 67 -4 100 -39 100 -23 0 -24 -3 -26 -68 -4 -110 -68 -219 -154
-262 -19 -10 -41 -27 -48 -37 -29 -40 -37 -15 -43 127 -2 49 3 95 11 95 3 0 5
17 4 37 0 33 4 58 27 142 2 7 30 38 61 68 45 44 62 54 80 50 24 -6 25 -4 28
85 2 32 -23 62 -72 90 -26 15 -38 29 -39 45 -2 62 -1 89 5 103 3 8 8 38 11 65
2 28 9 75 15 105 6 30 13 74 15 98 2 23 7 48 11 54 5 8 1 9 -12 5 -16 -6 -17
-5 -4 5 8 7 16 24 17 38 1 14 5 50 8 80 4 30 7 65 8 78 1 12 4 22 7 22 3 0 6
12 6 28 0 25 6 59 19 122 3 14 7 49 10 78 2 29 8 58 11 64 5 7 2 8 -6 3 -10
-6 -12 -4 -7 9 4 9 3 15 -2 12 -4 -3 -7 -22 -6 -43 2 -21 -2 -49 -8 -63 -5
-14 -11 -42 -11 -62 -1 -21 -5 -40 -8 -44 -4 -3 -4 -16 -2 -30 3 -19 1 -22
-12 -17 -12 4 -15 3 -10 -5 4 -7 3 -12 -2 -12 -15 0 -9 -44 8 -57 12 -10 13
-14 2 -25 -11 -11 -12 -10 -7 5 4 9 3 17 -3 17 -11 0 -9 -31 3 -50 3 -6 -2
-10 -12 -10 -12 0 -14 -3 -6 -8 18 -11 9 -75 -14 -109 -36 -52 -38 -57 -17
-50 17 6 17 6 3 -5 -9 -7 -15 -21 -13 -31 1 -9 -1 -17 -5 -17 -5 0 -7 -17 -6
-38 1 -20 0 -41 -4 -47 -6 -11 -9 -24 -16 -70 -6 -42 -14 -83 -26 -129 -6 -21
-8 -49 -5 -62 4 -13 3 -24 -1 -24 -7 0 -14 -61 -17 -157 -1 -17 -3 -31 -6 -30
-3 1 -6 -2 -7 -7 -1 -5 -7 -13 -15 -17 -8 -5 -9 -9 -2 -9 11 0 11 -41 0 -92
-2 -10 0 -21 5 -24 6 -3 6 -11 1 -17 -5 -7 -9 -32 -10 -57 -1 -25 -4 -54 -6
-65 -3 -11 -5 -30 -5 -43 -1 -13 -5 -21 -9 -18 -5 3 -7 -11 -6 -30 2 -19 -1
-34 -7 -34 -5 0 -9 -12 -8 -28 0 -15 -6 -51 -14 -79 -8 -29 -13 -53 -11 -53 3
0 -1 -6 -8 -13 -16 -18 -38 -18 -38 0 0 23 -20 14 -21 -9 0 -13 -2 -32 -4 -44
-3 -13 1 -21 9 -21 8 0 13 8 11 19 -2 10 0 16 6 13 5 -4 9 -1 9 4 0 6 4 11 8
11 5 0 9 -7 9 -15 0 -8 -4 -15 -8 -15 -4 0 -6 -8 -4 -18 4 -21 -28 -94 -49
-112 -9 -7 -13 -16 -10 -21 3 -5 0 -9 -6 -9 -6 0 -8 -5 -5 -11 9 -13 -14 -68
-37 -91 -9 -9 -15 -26 -13 -38 2 -13 -1 -20 -11 -20 -8 0 -12 -4 -9 -10 3 -5
1 -10 -4 -10 -6 0 -11 -6 -11 -14 0 -7 -7 -19 -15 -26 -10 -8 -13 -21 -8 -38
4 -16 2 -23 -5 -18 -6 3 -13 -3 -17 -14 -3 -11 -15 -25 -26 -31 -11 -5 -17
-15 -13 -20 3 -6 -8 -28 -25 -49 -17 -21 -31 -43 -31 -49 0 -5 -12 -16 -27
-23 -15 -7 -29 -22 -31 -33 -3 -11 0 -16 4 -12 5 5 9 14 9 19 0 6 6 13 13 16
11 3 12 0 3 -17 -7 -11 -8 -21 -4 -21 4 0 -5 -9 -22 -20 -16 -11 -26 -20 -21
-20 6 0 0 -9 -12 -20 -21 -20 -26 -32 -23 -57 1 -7 -7 -13 -19 -13 -21 0 -46
-43 -34 -61 3 -5 -1 -9 -8 -9 -7 0 -19 -9 -26 -21 -11 -17 -11 -20 0 -13 7 4
1 -6 -15 -23 -15 -16 -27 -35 -27 -42 0 -7 -4 -10 -9 -6 -5 3 -13 0 -17 -6 -4
-8 -3 -9 4 -5 7 4 12 1 12 -8 0 -8 -21 -29 -46 -46 -41 -29 -45 -35 -43 -68 2
-25 -1 -36 -9 -34 -7 1 -11 -1 -11 -5 3 -20 -2 -34 -11 -28 -5 3 -10 1 -10 -4
0 -15 -37 -14 -42 0 -2 7 -9 5 -17 -5 -9 -11 -10 -16 -2 -16 12 0 15 -39 3
-56 -15 -22 -48 -34 -62 -21 -10 10 -11 9 -5 -3 8 -13 6 -13 -7 -2 -15 12 -17
9 -20 -24 -2 -21 -9 -39 -17 -42 -8 -3 -11 0 -8 5 3 5 -6 8 -21 5 -18 -2 -32
-14 -42 -35 -8 -18 -21 -31 -28 -29 -6 1 -12 -2 -12 -8 0 -6 -6 -9 -12 -8 -7
2 -12 -2 -11 -9 3 -13 -22 -7 -44 10 -16 12 -17 -5 -1 -21 9 -9 7 -13 -5 -18
-9 -3 -17 -10 -17 -16 0 -5 4 -7 9 -3 5 3 12 1 16 -4 3 -6 -4 -8 -16 -6 -15 3
-23 -2 -26 -16 -4 -14 -12 -19 -29 -17 -13 2 -22 -1 -21 -7 1 -5 12 -9 25 -7
12 1 22 -2 22 -8 0 -5 -5 -10 -11 -10 -5 0 -7 -5 -3 -11 3 -6 -5 -3 -20 6 -15
10 -28 16 -29 14 -2 -2 -8 -17 -15 -32 -7 -16 -17 -27 -24 -25 -6 2 -22 -7
-35 -20 -13 -12 -27 -21 -32 -17 -5 3 -16 -3 -23 -14 -7 -10 -25 -21 -38 -23
-14 -2 -24 -9 -22 -16 1 -6 -5 -12 -13 -12 -8 0 -15 -4 -15 -9 0 -5 -9 -7 -20
-4 -21 5 -50 -17 -50 -39 -1 -8 -5 -7 -14 5 -9 12 -16 14 -21 7 -3 -5 -11 -8
-16 -5 -5 4 -18 -14 -28 -38 -11 -26 -28 -48 -40 -52 -11 -3 -28 -19 -38 -36
-9 -16 -23 -29 -30 -29 -7 0 -13 -4 -13 -10 0 -5 -6 -7 -14 -4 -8 3 -24 -4
-36 -16 -12 -12 -28 -19 -36 -16 -8 3 -14 1 -14 -4 0 -6 -7 -10 -15 -10 -9 0
-18 -6 -21 -14 -3 -8 -14 -13 -25 -11 -10 2 -22 -1 -25 -7 -5 -7 -2 -8 7 -4 8
4 5 0 -6 -9 -11 -9 -30 -14 -43 -12 -13 3 -30 -3 -39 -11 -18 -18 -53 -26 -53
-13 0 6 5 13 10 16 6 4 8 11 5 16 -10 16 -44 10 -65 -11 -20 -20 -53 -26 -118
-21 -21 1 -34 -3 -38 -14 -3 -8 -10 -15 -15 -15 -4 0 -6 7 -3 15 10 24 -15 17
-43 -12 -15 -16 -23 -22 -19 -15 4 7 1 12 -8 12 -17 0 -21 12 -9 24 4 4 9 19
11 33 3 23 1 25 -13 13 -12 -10 -13 -16 -3 -29 11 -14 11 -14 -2 -5 -18 12
-24 12 -73 -5 -30 -10 -41 -10 -52 -1 -12 10 -15 9 -15 -4 0 -9 -8 -16 -19
-16 -11 0 -18 6 -17 16 0 9 -7 18 -17 19 -9 2 -15 0 -12 -5 9 -15 -23 -19 -35
-5 -7 8 -17 12 -22 9 -5 -3 -18 2 -29 12 -10 9 -19 13 -19 9 0 -4 -9 0 -19 9
-12 11 -21 14 -26 7 -3 -6 -2 -11 3 -11 6 0 8 -9 5 -20 -6 -24 -26 -26 -48 -4
-9 9 -23 13 -32 9 -14 -5 -15 -8 -4 -15 21 -12 5 -40 -23 -40 -17 0 -24 4 -20
14 5 14 -30 29 -41 17 -4 -3 -17 -6 -30 -6 -14 -1 -22 1 -20 4 13 12 -18 29
-39 21 -13 -4 -27 -5 -32 -2 -13 10 -16 32 -3 32 6 0 4 7 -5 15 -21 22 -41 18
-56 -9 -9 -19 -19 -23 -38 -20 -14 3 -29 7 -34 10 -16 10 -8 -9 10 -22 15 -12
13 -13 -21 -14 -30 0 -40 5 -47 23 -5 12 -9 18 -9 14 -1 -4 -10 -3 -21 3 -11
6 -18 15 -15 20 3 5 -3 7 -14 5 -13 -2 -27 8 -46 35 -23 33 -33 39 -76 45 -27
4 -49 11 -49 16 0 5 -10 3 -22 -5 -13 -8 -56 -19 -96 -26 -66 -11 -75 -10 -93
6 -11 10 -17 24 -15 31 3 7 1 13 -4 13 -18 0 -25 2 -45 13 -11 6 -24 10 -29 9
-5 -2 -6 4 -2 13 3 10 2 14 -5 10 -6 -4 -8 -13 -5 -20 4 -10 -7 -13 -47 -10
-56 4 -95 -14 -82 -37 5 -7 -2 -3 -14 9 -18 19 -19 26 -10 41 8 12 9 25 3 35
-9 15 -12 16 -32 1 -18 -13 -21 -19 -11 -30 9 -12 6 -11 -17 1 -16 8 -29 20
-30 27 -1 25 -15 58 -25 58 -6 0 -8 -4 -4 -9 3 -5 1 -12 -5 -16 -6 -4 -8 -10
-5 -15 3 -5 0 -12 -6 -16 -8 -5 -9 -3 -4 6 6 10 4 12 -8 7 -9 -3 -19 -2 -22 4
-4 5 -10 7 -15 4 -4 -3 -19 -1 -32 4 -12 6 -17 10 -10 10 9 1 8 8 -5 27 -14
22 -19 24 -27 12 -13 -16 -58 -19 -48 -3 13 20 9 31 -14 42 -18 8 -22 8 -18 0
4 -7 -7 3 -25 22 -34 38 -42 54 -12 27 17 -16 19 -16 25 0 4 10 -3 23 -19 36
-14 11 -23 23 -21 26 2 4 -2 13 -10 20 -11 10 -14 10 -14 0 0 -7 -7 -2 -16 10
-9 13 -22 21 -30 18 -7 -3 -16 -1 -19 4 -4 6 2 10 12 11 16 0 16 1 -2 9 -11 5
-16 9 -11 9 14 1 -15 31 -30 31 -8 0 -11 -7 -9 -17 3 -10 -1 -4 -9 12 -8 17
-15 24 -16 16 0 -10 -3 -11 -13 -2 -8 6 -16 8 -20 5 -3 -3 -3 3 0 15 3 12 -1
29 -8 38 -12 14 -12 16 1 8 8 -4 5 3 -7 17 -13 13 -23 32 -23 42 0 15 -3 16
-15 6 -8 -7 -12 -16 -9 -21 9 -15 -8 -10 -27 7 -10 9 -15 22 -13 29 3 7 -2 25
-12 40 l-18 27 -17 -24 -18 -23 6 25 c5 20 4 23 -8 14 -8 -5 -20 -9 -26 -8 -7
1 -22 2 -33 3 -15 1 -20 8 -20 29 l1 27 25 -30 c15 -16 24 -23 21 -14 -4 13 0
16 16 12 20 -4 20 -3 -2 10 -14 8 -26 22 -27 32 -3 23 -14 32 -14 12 0 -11 -5
-14 -15 -11 -14 6 -13 8 2 19 10 8 15 17 11 21 -4 4 0 13 10 21 16 12 16 13
-1 7 -10 -4 -17 -3 -16 2 5 27 -4 46 -26 56 -13 6 -23 14 -21 17 2 3 0 16 -5
29 -11 29 -32 18 -24 -11 5 -17 4 -19 -4 -7 -6 8 -8 23 -5 33 3 9 0 17 -6 17
-6 0 -9 3 -6 8 2 4 -2 18 -9 31 l-12 24 -12 -21 c-10 -18 -9 -21 4 -16 23 9
19 -23 -5 -36 -11 -6 -20 -7 -20 -2 0 4 -7 17 -15 28 -13 18 -14 18 -9 -6 5
-24 5 -24 -10 -6 -15 18 -16 18 -16 2 0 -26 -25 -13 -28 15 -2 19 -1 21 7 9 7
-9 11 -10 11 -3 0 6 -5 15 -10 18 -6 4 -7 11 -4 17 4 7 2 8 -5 4 -6 -4 -9 -11
-6 -15 2 -5 -2 -17 -10 -27 -11 -15 -17 -17 -32 -8 -10 6 -19 20 -20 30 -2 16
-1 15 9 -3 6 -13 18 -23 27 -23 14 0 14 2 1 10 -8 5 -11 10 -6 10 5 0 1 8 -8
19 -9 10 -16 22 -15 27 6 37 -10 44 -29 13 -8 -12 -9 -18 -3 -14 6 3 11 -1 11
-9 0 -13 -3 -14 -19 -5 -10 7 -16 20 -14 29 2 9 -3 22 -11 29 -14 12 -16 10
-16 -10 -1 -23 -1 -23 -12 -4 -20 34 -39 49 -46 37 -5 -7 -13 -6 -26 3 -10 8
-15 19 -10 26 4 8 3 10 -5 5 -18 -11 -48 3 -54 25 -3 11 -15 23 -27 26 -15 4
-19 11 -15 24 4 13 1 19 -9 19 -16 0 -86 62 -86 76 0 5 4 2 10 -6 11 -18 23
-8 14 14 -3 9 -14 16 -24 16 -23 0 -47 38 -46 72 1 14 -2 24 -6 22 -4 -3 -8 3
-9 13 0 16 -1 16 -9 -2 -5 -11 -9 -16 -9 -11 -1 5 -7 3 -15 -3 -15 -13 -32 1
-22 17 3 5 -2 20 -12 33 -9 13 -17 30 -19 37 -1 8 -9 19 -19 26 -13 10 -14 15
-4 21 9 6 11 4 5 -5 -5 -9 -4 -11 4 -6 6 4 9 12 5 17 -3 5 -10 7 -15 4 -5 -4
-9 0 -9 8 0 8 -7 17 -15 21 -8 3 -15 13 -16 23 0 16 -2 16 -10 -2 -8 -16 -9
-14 -5 11 5 33 -13 78 -32 80 -7 1 -17 2 -23 3 -6 0 -9 10 -6 21 3 11 -3 30
-14 44 -10 13 -19 31 -19 40 0 9 -4 24 -9 34 -5 9 -12 25 -15 35 -3 10 -11 15
-17 11 -8 -4 -8 0 0 15 8 15 9 21 1 21 -6 0 -8 5 -5 10 3 6 2 10 -4 10 -6 0
-8 7 -5 15 4 8 11 12 18 8 7 -4 7 -2 -1 7 -8 9 -9 19 -2 32 6 12 6 18 -1 18
-5 0 -10 -5 -10 -11 0 -5 -5 -7 -10 -4 -8 5 -7 11 1 21 7 9 8 14 3 13 -21 -4
-35 2 -29 11 4 6 1 18 -7 27 -11 14 -11 16 2 8 13 -8 13 -7 1 8 -7 9 -10 17
-5 17 5 0 2 5 -6 10 -13 9 -13 10 0 10 13 0 13 1 0 10 -8 5 -10 10 -4 10 12 0
13 5 17 75 1 28 -3 71 -9 97 -7 26 -10 49 -8 51 7 6 -18 71 -33 85 -7 8 -10
19 -6 25 4 7 -2 5 -12 -3 -11 -9 -16 -10 -11 -2 4 7 1 15 -8 18 -9 3 -16 17
-16 30 0 14 -6 24 -14 24 -8 0 -17 4 -20 9 -4 5 3 7 14 4 11 -3 20 0 20 6 0 6
-5 10 -12 9 -16 -4 -17 59 -1 93 11 24 9 31 -22 75 -19 27 -44 52 -55 56 -13
5 -19 4 -15 -2 3 -5 -1 -7 -9 -4 -8 3 -12 12 -9 20 4 10 0 12 -11 8 -14 -5
-16 -2 -10 21 5 21 4 26 -5 20 -8 -4 -14 1 -18 14 -3 12 -9 21 -14 21 -5 0
-11 0 -14 0 -3 0 -11 5 -19 12 -11 11 -11 16 2 36 13 21 13 22 -3 15 -12 -4
-16 -3 -12 4 4 6 -5 13 -21 16 -18 5 -32 18 -43 42 -9 19 -13 38 -8 41 5 3 8
0 7 -7 -2 -7 5 -15 15 -17 15 -3 16 0 7 24 -6 15 -18 34 -28 41 -9 8 -12 12
-7 10 6 -3 17 2 25 11 13 14 12 15 -2 10 -22 -9 -31 3 -13 16 14 10 13 13 -4
28 -12 10 -23 13 -26 8 -10 -15 -28 -12 -22 4 7 17 -23 46 -45 46 -9 0 -19 7
-22 16 -3 8 -10 13 -15 10 -5 -3 -7 2 -4 12 2 11 -1 25 -9 33 -7 8 -15 25 -16
39 -2 14 -8 30 -13 35 -7 7 -8 3 -4 -10 5 -15 4 -16 -3 -6 -5 7 -7 21 -5 31 3
12 -2 20 -14 23 -16 4 -16 5 2 6 15 1 21 8 20 25 0 13 -3 27 -7 31 -11 11 26
65 50 71 13 4 22 14 22 25 0 12 7 19 20 19 11 0 28 4 38 10 29 16 115 52 130
54 7 1 17 7 21 14 3 6 19 13 34 16 15 3 53 14 83 26 31 11 60 18 65 15 5 -4 9
-2 9 3 0 5 28 17 63 26 34 10 80 24 102 32 22 7 51 16 65 18 14 3 50 12 80 20
30 9 73 18 95 22 21 3 46 9 55 14 8 4 27 8 42 8 15 0 42 5 58 12 17 7 33 10
37 7 3 -4 13 -2 22 2 9 5 41 12 71 16 30 4 75 11 100 17 25 5 79 16 120 24 41
7 104 21 140 29 36 8 103 22 150 30 47 8 101 19 120 24 19 5 60 15 90 21 179
38 429 131 483 178 9 8 17 12 17 9 0 -4 9 2 20 13 11 11 27 20 35 20 8 0 15 7
15 15 0 8 7 15 15 15 8 0 15 5 15 10 0 12 47 14 53 3 8 -13 -23 -93 -43 -113
-11 -11 -17 -28 -15 -40 3 -18 -6 -25 -28 -21 -5 1 -6 -13 -2 -30 5 -23 4 -30
-5 -24 -7 4 -13 -1 -17 -14 -5 -18 -8 -19 -21 -9 -10 8 -13 8 -9 2 4 -7 0 -14
-8 -18 -8 -3 -15 -13 -15 -21 0 -9 5 -13 10 -10 16 10 12 0 -10 -25 -11 -12
-17 -27 -13 -33 3 -5 1 -7 -4 -4 -18 11 -23 -21 -7 -38 14 -13 17 -13 37 6 12
11 22 25 22 30 0 5 10 15 21 22 12 7 46 27 75 44 54 33 99 43 99 22 0 -13 20
7 45 44 12 19 20 24 25 16 4 -6 12 -9 18 -5 6 3 15 -2 21 -11 6 -11 11 -13 11
-5 0 7 3 11 8 9 4 -3 13 1 20 9 7 8 8 14 2 14 -5 0 -10 5 -10 10 0 6 6 9 13 8
6 -2 11 4 9 12 -2 10 0 12 7 5 11 -11 4 -55 -9 -55 -5 0 -6 -9 -3 -21 4 -16 8
-17 14 -7 6 10 12 9 24 -7 9 -11 14 -14 10 -7 -3 6 -1 12 5 12 6 0 8 5 4 12
-4 6 -3 8 4 4 6 -3 14 -1 18 6 5 8 9 6 14 -7 5 -15 9 -12 22 16 12 24 14 37 6
46 -6 7 -14 11 -18 8 -5 -3 -6 5 -2 17 4 16 2 19 -9 13 -12 -8 -12 -6 0 8 7 9
10 17 6 17 -4 0 1 12 10 27 24 36 28 83 6 83 -14 1 -14 2 1 11 16 9 16 12 -1
41 -11 17 -17 41 -15 55 3 14 1 22 -3 20 -10 -6 -9 29 1 62 6 17 11 20 19 12
6 -6 15 -11 20 -11 11 0 5 43 -8 52 -6 5 -6 8 2 8 6 0 10 9 8 20 -2 11 0 18 6
15 5 -4 9 -1 9 4 0 6 5 11 11 11 5 0 7 -6 3 -12 -5 -9 -4 -10 4 -3 17 15 25
82 11 90 -8 6 -7 10 2 16 12 7 12 9 0 9 -11 0 -11 3 0 17 12 15 12 16 -1 8
-12 -6 -12 -5 -4 4 7 7 10 28 7 47 -4 27 -1 34 12 34 15 0 16 2 4 17 -12 15
-12 16 1 8 12 -6 13 -5 3 6 -16 16 -17 33 -2 23 8 -4 9 13 5 57 -8 89 -12 121
-19 144 -20 63 6 344 38 405 62 119 327 148 441 48 46 -41 82 -113 142 -289
27 -79 60 -169 72 -199 12 -30 29 -75 37 -100 18 -53 117 -253 144 -291 10
-15 19 -31 19 -36 1 -13 90 -115 140 -160 95 -85 267 -188 355 -212 60 -16
207 -52 230 -56 65 -12 214 -37 235 -40 14 -2 48 -6 76 -9 28 -4 60 -8 70 -10
11 -2 54 -7 95 -11 41 -3 91 -11 111 -16 20 -5 49 -9 65 -8 29 1 96 -6 148
-15 48 -8 187 -25 260 -32 47 -4 110 -11 180 -20 50 -6 199 -6 245 0 33 5 60
16 60 26 0 4 9 10 20 13 20 5 53 66 64 117 32 149 35 157 92 201 86 66 148
164 198 313 40 117 86 349 101 506 9 91 18 173 21 183 5 16 15 19 67 16 105
-4 104 -4 131 54 13 29 33 85 45 123 15 51 31 81 62 113 l41 44 -4 115 c-4
137 -11 147 -97 138 -43 -4 -59 -1 -81 15 -17 13 -79 31 -171 49 -198 40 -312
70 -321 83 -4 7 -5 19 -3 28 3 9 -5 29 -17 44 l-22 28 22 -5 c17 -5 22 -2 22
13 0 11 7 30 16 43 15 23 14 26 -25 62 -32 29 -38 40 -30 51 9 11 16 8 34 -13
13 -16 25 -22 29 -16 10 17 -29 108 -63 144 -17 18 -31 36 -31 39 0 4 -10 9
-22 12 -23 6 -23 6 -3 -10 19 -15 19 -15 -5 -8 -14 4 -27 13 -29 19 -2 6 -41
49 -87 95 -72 71 -87 82 -109 77 -14 -4 -24 -3 -23 1 2 5 1 9 -2 10 -3 0 -28
10 -57 21 -37 14 -55 16 -62 9 -8 -8 -25 -6 -58 5 -27 9 -69 22 -95 29 -46 13
-56 29 -17 29 33 0 21 20 -13 21 -18 1 -44 3 -58 5 -33 4 -72 -4 -66 -15 6
-10 -75 -8 -91 2 -6 4 -14 3 -18 -3 -3 -5 -18 -10 -33 -11 -44 -1 117 -29 203
-34 44 -3 105 -13 135 -22 l55 -17 -40 -4 c-22 -2 -57 2 -78 8 -40 12 -227 10
-227 -2 0 -12 -48 -9 -55 2 -4 6 -1 17 5 25 9 11 9 15 1 15 -6 0 -14 -7 -17
-15 -4 -8 -12 -15 -19 -15 -7 0 -12 -8 -11 -17 1 -15 -9 -19 -57 -21 -44 -2
-57 0 -51 9 5 9 -2 10 -27 6 -20 -4 -47 0 -64 7 l-30 13 29 8 c20 6 31 4 34
-3 6 -19 18 -14 19 8 2 26 -45 27 -78 2 -24 -19 -100 -35 -151 -33 -22 1 -26
-2 -21 -16 6 -16 5 -17 -12 -3 -12 10 -16 10 -11 2 6 -10 1 -11 -17 -6 -14 3
-34 1 -44 -5 -15 -9 -11 -10 21 -11 48 0 41 -10 -11 -17 -21 -2 -55 -9 -76
-14 -21 -6 -47 -7 -57 -4 -11 4 -20 3 -20 -2 0 -4 -15 -14 -32 -21 -18 -7 -52
-22 -76 -33 -24 -11 -48 -16 -54 -13 -6 4 -8 3 -5 -3 7 -12 -49 -46 -63 -38
-6 3 -7 -1 -4 -9 4 -10 1 -16 -8 -16 -13 0 -169 -79 -157 -80 4 0 25 7 48 15
22 8 41 12 41 9 0 -9 -85 -44 -107 -44 -14 0 -23 -6 -23 -15 0 -8 -4 -15 -10
-15 -21 0 -8 26 30 64 22 21 40 45 40 53 0 9 -8 5 -23 -11 -18 -19 -26 -22
-41 -14 -12 7 -17 7 -12 0 3 -5 -1 -15 -9 -22 -8 -7 -13 -16 -10 -20 3 -5 0
-12 -6 -16 -8 -4 -9 -3 -5 4 11 18 -5 14 -41 -8 -29 -17 -33 -18 -33 -4 0 12
-5 10 -20 -9 -11 -14 -20 -30 -20 -37 0 -6 -4 -9 -9 -6 -5 4 -11 1 -13 -5 -2
-6 -19 -14 -38 -18 -19 -4 -35 -12 -35 -19 0 -7 -4 -11 -8 -9 -5 1 -15 -9 -23
-23 -14 -24 -15 -24 -11 -2 6 27 -9 29 -25 3 -9 -15 -16 -17 -25 -9 -10 8 -15
4 -22 -13 -6 -16 -10 -18 -10 -8 -1 9 -8 20 -17 23 -24 9 -26 8 -19 -14 4 -12
2 -20 -5 -20 -7 0 -8 -6 -1 -18 12 -23 2 -41 -27 -45 -12 -2 -25 -7 -29 -12
-5 -4 -2 -5 4 -1 10 5 11 -1 6 -25 -7 -36 12 -55 37 -36 13 11 13 10 1 -5 -7
-10 -19 -18 -26 -18 -8 0 -15 -7 -17 -16 -4 -19 -147 -76 -268 -107 -73 -19
-113 -22 -280 -22 -206 0 -235 4 -401 55 l-96 30 3 32 c3 21 1 28 -5 19 -6 -9
-11 -10 -15 -2 -4 6 0 14 8 17 9 3 16 13 16 21 0 8 -4 12 -9 9 -5 -4 -7 3 -4
15 5 18 2 19 -22 13 -23 -6 -27 -4 -23 8 5 11 0 14 -17 10 -16 -3 -27 2 -34
17 -10 18 -9 21 11 21 22 1 22 1 3 13 -11 6 -23 12 -27 13 -5 1 -9 3 -10 4 -2
1 -18 3 -37 5 -18 2 -37 8 -41 15 -4 6 -10 11 -14 10 -4 -1 -12 1 -19 3 -7 3
-6 6 4 6 9 1 22 7 28 15 10 12 9 14 -6 11 -25 -4 -38 6 -22 16 9 6 2 9 -21 8
-29 0 -31 -2 -15 -9 18 -8 19 -9 1 -9 -11 -1 -16 -6 -13 -15 7 -18 -18 -42
-28 -26 -3 5 -1 10 4 10 6 0 11 9 11 21 0 11 -5 17 -10 14 -6 -3 -13 1 -16 9
-8 20 -24 21 -24 1 0 -8 5 -15 10 -15 6 0 10 -4 10 -9 0 -15 -79 -5 -98 13
-10 9 -22 13 -27 9 -4 -5 -6 -1 -3 7 2 8 15 17 29 20 20 5 16 7 -20 12 -28 4
-52 15 -65 30 -12 13 -17 18 -12 11 13 -20 1 -26 -24 -13 -39 21 -32 3 9 -26
46 -33 50 -41 19 -39 -12 1 -25 11 -29 23 -5 12 -15 22 -23 22 -7 0 -21 11
-29 24 -9 13 -26 26 -38 29 -19 5 -18 2 9 -23 32 -29 41 -50 22 -50 -5 0 -10
5 -10 10 0 6 -8 10 -17 10 -20 0 -73 48 -73 66 0 6 -6 17 -14 23 -12 10 -12 6
0 -26 7 -21 13 -44 14 -50 0 -20 -28 -15 -50 7 -11 11 -27 20 -35 20 -8 0 -15
5 -15 10 0 6 8 10 18 10 14 0 15 2 2 10 -20 13 -33 13 -25 0 10 -16 -19 -12
-41 6 -17 14 -17 15 -1 10 10 -3 16 -2 13 3 -3 5 -20 7 -38 6 -43 -4 -42 -3
-28 -20 15 -18 7 -19 -22 -4 -15 8 -19 8 -14 0 10 -15 7 -15 -91 19 -94 33
-118 37 -108 18 4 -7 -1 -4 -9 6 -9 11 -16 16 -16 10 0 -5 -3 -5 -8 1 -11 16
-50 35 -69 35 -15 -1 -14 -4 7 -22 l25 -21 -24 8 c-14 4 -34 16 -45 26 -11 11
-31 19 -46 19 -14 0 -42 8 -62 19 -26 13 -40 15 -47 8 -8 -8 -11 -6 -11 6 0
11 8 17 22 17 12 0 19 3 15 6 -11 11 -57 -6 -57 -21 0 -8 -3 -14 -7 -14 -26 4
-63 -3 -58 -10 3 -6 -3 -9 -12 -9 -10 1 -28 -2 -41 -6 -18 -6 -25 -3 -35 21
-15 34 -32 39 -55 16 -16 -15 -15 -16 11 -9 16 4 27 2 27 -4 0 -14 -19 -13
-87 5 -37 10 -59 12 -61 5 -2 -5 -10 -10 -18 -10 -9 0 -12 -5 -9 -11 4 -5 17
-9 28 -8 42 3 57 -1 57 -15 0 -20 -21 -25 -68 -16 -33 6 -42 4 -42 -6 0 -8 -4
-14 -10 -14 -5 0 -10 4 -10 9 0 5 -11 9 -25 9 -23 0 -24 -2 -8 -13 15 -11 10
-13 -33 -19 -51 -6 -100 -3 -111 8 -13 12 -3 16 87 32 19 4 42 11 50 16 12 7
11 8 -5 4 -11 -2 -38 -7 -60 -11 -22 -3 -48 -9 -58 -12 -17 -4 -17 -3 2 16 12
12 27 21 35 21 7 0 27 7 42 15 23 12 25 15 9 14 -11 0 -41 -6 -68 -12 -37 -10
-44 -16 -35 -25 10 -10 5 -15 -20 -24 -18 -7 -32 -16 -32 -21 0 -4 9 -3 19 3
28 14 36 12 21 -5 -7 -9 -29 -15 -54 -15 -39 1 -40 1 -21 16 20 16 20 16 -2 9
-17 -5 -23 -2 -23 9 0 11 -9 16 -29 16 -16 0 -32 6 -35 13 -5 9 -7 9 -12 -1
-3 -6 -10 -9 -15 -6 -14 8 21 33 46 34 11 0 43 11 70 25 56 27 48 34 -11 9
-28 -12 -54 -14 -94 -10 -30 4 -75 3 -100 -2 -52 -10 -93 -2 -69 14 34 22 66
36 89 41 34 6 36 11 7 18 -15 4 -34 1 -49 -9 -12 -8 -40 -22 -61 -31 l-38 -16
17 26 c27 42 3 28 -52 -30 -37 -38 -54 -65 -57 -87 -3 -31 -7 -34 -72 -53 -38
-12 -70 -26 -72 -32 -3 -7 -12 -9 -21 -6 -13 4 -14 3 -3 -5 18 -13 -4 -58 -39
-81 -21 -13 -23 -13 -14 -1 6 8 14 24 17 35 6 16 2 14 -18 -8 l-24 -28 -7 26
c-6 25 -28 33 -39 15 -5 -8 -11 -8 -19 -1 -7 6 -17 7 -21 3 -5 -4 -5 -1 -1 6
5 7 11 11 14 8 9 -10 52 36 52 56 0 22 -13 23 -31 2 -12 -15 -15 -14 -32 7
-14 17 -15 24 -5 30 7 4 9 11 5 16 -9 8 -27 -15 -27 -34 0 -7 5 -13 10 -13 6
0 10 -4 10 -9 0 -5 -9 -7 -20 -4 -16 4 -18 11 -13 37 3 17 11 34 17 39 6 4 0
6 -13 5 -13 -2 -26 3 -28 10 -3 6 2 12 11 12 9 0 16 8 16 21 0 11 5 17 10 14
6 -3 10 -1 10 4 0 6 -4 11 -10 11 -5 0 -10 6 -10 14 0 8 -6 17 -12 19 -10 4
-10 8 -2 14 15 11 15 63 0 63 -7 0 -17 -5 -23 -11 -9 -9 -12 -4 -11 20 1 27 6
33 29 38 28 5 28 6 11 32 -19 30 -44 51 -53 45 -8 -5 9 74 19 90 10 16 13 48
4 42 -4 -2 -9 4 -9 15 -2 18 0 18 17 -3 15 -18 21 -21 31 -10 10 9 10 12 1 12
-7 0 -12 8 -12 19 0 10 -8 25 -17 32 -9 8 -14 9 -10 3 3 -6 0 -11 -8 -11 -8 0
-13 2 -11 5 3 2 1 15 -4 28 -6 15 -6 24 0 24 14 0 12 28 -2 32 -7 3 -14 24
-15 49 -1 24 -2 49 -2 55 -1 6 -13 24 -27 39 -41 45 -34 101 18 125 35 16 49
40 24 40 -10 0 -16 9 -16 24 0 20 -4 23 -22 18 -13 -3 -29 -13 -36 -21 -8 -9
-11 -11 -8 -5 3 6 -1 11 -8 11 -8 0 -11 -8 -8 -19 2 -10 -1 -18 -7 -18 -12 0
-10 27 3 48 4 7 14 11 22 8 7 -3 16 -1 19 4 3 4 -1 11 -7 13 -9 4 -8 6 2 6 9
1 3 9 -14 20 -17 11 -34 17 -39 14 -5 -3 -4 4 2 14 6 11 7 24 3 28 -4 3 -1 5
7 3 8 -2 17 6 19 16 3 14 0 17 -11 13 -22 -8 -28 3 -15 27 7 11 11 25 10 30
-2 5 3 4 11 -3 12 -9 16 -9 20 1 4 10 6 10 6 1 1 -7 7 -13 15 -13 8 0 18 -4
21 -10 4 -6 -6 -7 -26 -3 -29 6 -31 5 -18 -9 8 -10 16 -12 20 -6 4 7 9 6 13
-1 4 -6 12 -11 17 -11 6 0 8 4 5 9 -3 5 1 14 9 21 17 14 17 10 16 -90 -2 -68
14 -98 17 -33 1 25 6 51 12 58 6 8 10 36 9 65 -2 40 -7 54 -23 62 -19 10 -19
11 -1 24 10 8 15 17 11 21 -10 10 -37 13 -31 3 3 -5 -1 -11 -7 -13 -10 -4 -10
-6 0 -6 7 -1 11 -5 7 -10 -3 -5 5 -17 17 -25 12 -9 17 -16 11 -16 -7 0 -15 5
-19 11 -3 6 -15 9 -25 6 -15 -4 -19 0 -19 18 0 13 -4 27 -10 30 -20 13 -9 23
23 21 40 -2 70 11 60 27 -4 7 0 7 10 -2 20 -16 23 -47 5 -53 -8 -3 -7 -6 3
-10 9 -3 16 -1 17 5 3 33 9 64 14 73 4 5 3 16 -3 24 -5 8 -9 11 -9 6 0 -5 -6
-3 -14 4 -8 6 -13 24 -12 38 2 15 0 38 -5 51 -7 18 -14 22 -34 17 -21 -5 -25
-3 -25 15 0 12 -8 28 -17 35 -11 8 -13 13 -6 14 21 0 41 53 37 95 -3 22 -5 55
-6 73 -2 17 -5 32 -9 32 -3 0 -5 12 -4 28 1 15 -2 34 -6 43 -6 11 -2 25 9 40
10 13 19 36 20 51 3 23 0 26 -17 23 -25 -5 -28 8 -17 70 3 16 11 32 18 37 10
6 10 8 -2 8 -12 0 -12 2 -2 9 11 7 11 9 -2 14 -12 5 -16 0 -16 -20 0 -14 -3
-24 -6 -20 -6 5 -12 81 -14 157 0 20 -2 22 -10 10 -5 -8 -10 -10 -10 -5 0 6
-5 3 -10 -5 -8 -12 -10 -12 -11 5 0 11 -2 32 -3 48 -2 15 1 27 6 27 5 0 7 4 4
9 -6 9 23 38 32 33 3 -1 7 5 8 14 1 8 10 24 18 33 9 10 16 25 16 35 0 9 5 27
12 39 6 12 13 40 14 62 1 22 3 43 3 48 1 4 8 7 16 7 8 0 15 4 15 9 0 6 13 17
28 26 16 10 37 30 47 45 21 31 61 54 76 44 5 -3 8 0 7 8 -2 7 4 13 12 14 30 2
75 17 91 31 16 13 53 8 44 -7 -7 -11 141 -5 157 6 7 6 20 10 28 9 8 -1 26 4
40 10 24 12 123 13 165 2 11 -2 31 0 45 6 35 15 150 35 144 25 -3 -4 2 -8 11
-8 9 0 13 4 10 10 -11 17 116 5 129 -12 14 -19 86 -51 86 -38 0 5 -4 12 -10
15 -21 13 -9 23 24 21 25 -1 32 2 25 10 -6 8 -6 14 0 18 13 8 41 -4 41 -17 0
-6 3 -8 6 -4 3 3 24 -5 45 -19 50 -31 66 -31 45 1 -16 24 -16 25 14 19 22 -5
31 -2 36 9 3 9 12 13 19 11 7 -3 24 0 37 7 13 8 48 14 78 16 30 1 63 2 72 3
10 1 33 -6 52 -15 19 -9 39 -14 44 -11 5 3 28 -2 51 -11 34 -13 44 -14 54 -3
10 10 9 11 -2 5 -9 -5 -12 -4 -7 3 7 11 33 5 78 -19 15 -8 19 -8 14 0 -9 15 5
14 45 -3 65 -26 79 -29 73 -12 -8 20 5 20 32 1 12 -8 24 -11 28 -8 3 3 6 0 6
-7 0 -7 3 -11 6 -8 3 4 1 16 -5 27 -11 19 -10 20 14 11 16 -6 41 -6 66 -1 23
5 53 7 67 5 22 -4 25 -3 15 7 -20 20 -16 27 22 31 19 2 35 0 35 -5 0 -5 6 -4
13 2 10 8 22 7 45 -1 24 -9 42 -9 80 0 28 8 69 10 96 7 62 -9 86 8 53 37 l-22
20 25 -7 c65 -17 101 -22 106 -14 3 5 -1 12 -10 15 -8 3 -17 12 -20 20 -4 11
0 13 19 8 15 -4 25 -2 25 5 0 12 32 15 44 4 3 -4 21 -12 39 -19 17 -6 41 -15
51 -19 13 -6 17 -5 13 2 -5 7 0 9 14 6 l20 -6 -20 36 -20 35 36 -10 c26 -7 38
-6 43 2 5 8 18 -1 39 -26 21 -27 31 -33 31 -21 0 22 12 22 40 -3 13 -11 25
-20 27 -20 2 0 -1 9 -7 20 -12 23 2 27 19 6 6 -8 25 -16 41 -18 27 -4 30 -2
24 16 -4 12 -11 24 -16 27 -5 3 0 9 11 12 13 3 25 -1 31 -11 6 -10 10 -12 10
-4 0 9 9 9 37 -3 29 -12 38 -13 44 -3 6 9 14 7 32 -10 18 -17 26 -20 29 -11 4
11 13 11 49 0 24 -7 52 -17 61 -22 10 -5 24 -6 32 -3 15 6 134 -23 153 -38 7
-5 14 -5 18 2 5 8 11 8 21 -1 11 -9 14 -9 14 1 0 9 6 8 19 -4 19 -17 20 -17
23 6 l4 23 13 -26 c9 -19 20 -26 37 -25 13 0 24 4 24 9 0 4 9 7 20 7 11 0 23
7 26 15 7 18 24 20 24 3 0 -7 9 -24 20 -38 l20 -25 0 28 c0 37 24 31 28 -6 4
-34 18 -35 26 -2 7 28 27 33 46 11 14 -18 40 -10 40 11 0 10 7 14 19 10 12 -3
22 1 26 12 5 13 9 10 20 -14 12 -27 13 -28 14 -7 1 33 19 27 30 -10 5 -18 10
-25 10 -15 1 20 29 23 37 3 3 -8 19 -19 36 -25 29 -10 30 -10 26 14 -7 34 19
33 33 -1 8 -23 12 -25 22 -12 7 7 21 20 31 28 17 14 18 13 12 -7 -9 -29 12
-40 23 -11 l10 23 0 -22 c1 -35 42 -30 69 7 27 37 40 38 48 5 9 -37 24 -30 24
11 l0 36 25 -16 c23 -15 26 -15 31 -1 6 14 9 14 26 -2 18 -16 21 -16 31 -2 7
9 23 15 37 14 14 -1 27 1 30 4 3 3 15 14 27 24 18 16 24 16 42 5 18 -11 23
-11 31 2 8 13 10 13 10 -2 0 -13 7 -15 40 -11 33 5 40 3 40 -11 0 -9 8 -16 19
-16 10 0 22 -8 26 -17 6 -17 7 -17 16 -1 7 12 20 16 45 14 19 -2 37 -6 41 -10
3 -3 15 -6 25 -6 10 0 21 -6 24 -14 3 -8 19 -16 36 -20 18 -3 32 -14 35 -25 3
-11 10 -18 17 -15 7 3 21 -4 31 -16 10 -11 25 -20 34 -20 9 0 33 -9 53 -20 37
-19 37 -19 43 0 4 11 12 20 18 21 27 3 63 -3 72 -12 5 -5 16 -9 25 -9 8 0 23
-9 33 -20 9 -11 28 -20 42 -20 15 0 24 -4 20 -10 -3 -5 -2 -10 4 -10 5 0 8 -9
6 -20 -2 -13 2 -20 11 -20 29 0 72 -30 86 -60 7 -16 16 -30 20 -30 5 0 7 -3 6
-7 -4 -14 31 -70 62 -101 16 -17 30 -38 30 -47 0 -9 8 -29 19 -43 10 -15 28
-43 39 -63 11 -20 26 -47 34 -60 7 -13 20 -33 29 -44 9 -11 34 -54 56 -95 44
-83 84 -152 93 -160 3 -3 13 -22 24 -42 10 -20 25 -39 32 -42 8 -3 14 -12 14
-21 0 -8 4 -23 9 -33 6 -9 22 -44 37 -77 15 -33 33 -67 39 -75 14 -18 45 -115
45 -141 0 -11 5 -19 10 -19 6 0 10 -6 10 -14 0 -8 5 -27 12 -43 6 -15 10 -32
9 -36 -1 -5 3 -6 9 -2 19 12 41 -15 30 -36 -14 -25 -20 -99 -8 -99 4 0 13 -11
20 -24 15 -35 37 -41 33 -10 -1 13 3 28 9 31 17 11 36 12 36 2 0 -5 3 -8 8 -6
4 1 9 -2 11 -8 3 -5 14 -18 25 -28 12 -10 15 -16 9 -12 -8 4 -13 -1 -13 -14 0
-10 6 -22 13 -24 9 -4 9 -6 -1 -6 -7 -1 -10 -5 -7 -11 3 -5 1 -10 -5 -10 -6 0
-8 -5 -5 -10 4 -6 11 -7 17 -4 7 4 8 2 4 -5 -4 -6 -12 -9 -17 -6 -5 4 -9 2 -9
-4 0 -6 -6 -8 -13 -5 -8 3 -14 -2 -14 -10 0 -8 3 -14 6 -12 3 2 12 -2 19 -10
7 -8 9 -14 4 -14 -9 0 -6 -66 4 -90 9 -19 14 -39 18 -70 2 -16 14 -31 34 -41
17 -9 28 -20 24 -25 -4 -5 2 -1 13 8 20 16 20 16 19 -110 0 -70 3 -132 8 -138
9 -13 14 -43 23 -146 3 -37 10 -80 17 -95 6 -15 13 -41 15 -58 5 -51 6 -54 15
-49 4 3 6 16 4 29 -3 13 1 26 7 29 9 3 8 5 -1 5 -10 1 -10 6 -2 21 6 11 7 20
2 20 -9 0 -7 185 3 227 3 11 -2 60 -10 108 -9 48 -18 108 -20 134 -3 25 -8 64
-11 86 -4 22 -7 46 -7 53 0 6 -3 12 -7 12 -3 0 -7 10 -8 23 -2 34 -7 61 -13
72 -3 6 -5 42 -4 80 1 39 -2 93 -7 120 -5 28 -13 84 -18 125 -15 129 -62 351
-93 440 -25 70 -44 148 -56 230 -8 53 -24 102 -56 166 -38 77 -45 100 -45 150
0 33 -5 87 -12 120 -6 32 -11 79 -10 104 1 30 -6 60 -23 92 -14 26 -25 57 -25
68 0 48 -60 176 -101 215 -22 22 -48 54 -56 70 -9 17 -39 53 -67 82 -56 56
-67 74 -119 198 l-33 79 -109 73 c-160 106 -190 130 -216 168 -13 19 -32 38
-41 41 -57 18 -253 217 -336 340 -12 19 -26 34 -30 34 -4 0 -27 19 -52 41 -25
22 -68 51 -96 64 -32 15 -83 55 -137 109 -85 83 -88 85 -146 92 -40 4 -66 13
-77 25 -9 11 -25 19 -35 19 -10 0 -21 5 -24 10 -4 6 -27 22 -53 35 -26 14 -68
39 -94 55 -26 16 -65 34 -88 41 -22 7 -57 27 -78 44 -20 18 -55 38 -77 45 -22
7 -76 30 -120 52 -56 27 -89 38 -109 35 -17 -2 -49 4 -73 15 -29 13 -54 17
-76 13 -26 -5 -44 1 -91 29 -55 33 -64 35 -115 29 -31 -3 -58 -7 -60 -9 -2 -1
-25 6 -52 17 -28 10 -61 19 -74 19 -14 0 -42 9 -62 20 -21 11 -49 20 -63 20
-15 0 -35 7 -46 15 -10 8 -35 15 -55 15 -19 0 -39 4 -45 9 -5 6 -31 12 -59 15
-27 3 -53 5 -56 5 -3 1 -22 14 -42 29 -31 25 -49 30 -124 37 -48 4 -110 6
-138 5 -63 -3 -72 -3 -175 3 -47 2 -112 -1 -145 -7z m5 -782 c0 -8 -4 -12 -10
-9 -5 3 -10 10 -10 16 0 5 5 9 10 9 6 0 10 -7 10 -16z m184 -39 c21 -4 26 -9
18 -17 -8 -8 -21 -6 -46 6 -38 18 -48 31 -18 23 9 -3 30 -8 46 -12z m71 -45
c3 -5 2 -10 -4 -10 -5 0 -13 5 -16 10 -3 6 -2 10 4 10 5 0 13 -4 16 -10z m83
-43 c5 -24 -15 -21 -28 4 -10 18 -9 20 7 17 10 -2 19 -11 21 -21z m-648 -88
c0 -4 -6 -6 -12 -5 -7 2 -32 7 -55 11 -24 4 -43 11 -43 15 0 3 25 2 55 -3 30
-6 55 -14 55 -18z m-325 11 c3 -5 -1 -10 -10 -10 -9 0 -13 5 -10 10 3 6 8 10
10 10 2 0 7 -4 10 -10z m269 -90 c13 -13 -16 -6 -39 8 -19 12 -18 13 5 6 14
-3 29 -10 34 -14z m301 0 c3 -5 1 -10 -4 -10 -6 0 -11 5 -11 10 0 6 2 10 4 10
3 0 8 -4 11 -10z m285 -25 c7 -8 8 -15 2 -15 -5 0 -15 7 -22 15 -7 8 -8 15 -2
15 5 0 15 -7 22 -15z m-185 -5 c8 -13 -5 -13 -25 0 -13 8 -13 10 2 10 9 0 20
-4 23 -10z m600 -28 c-3 -3 -11 0 -18 7 -9 10 -8 11 6 5 10 -3 15 -9 12 -12z
m130 -57 c43 -20 75 -38 72 -42 -4 -3 -18 2 -33 12 -14 9 -35 15 -45 12 -10
-3 -17 -1 -14 4 3 4 -11 17 -32 28 -60 32 -32 24 52 -14z m275 -25 c0 -5 -2
-10 -4 -10 -3 0 -8 5 -11 10 -3 6 -1 10 4 10 6 0 11 -4 11 -10z m-650 -55 c7
-9 8 -15 2 -15 -5 0 -12 7 -16 15 -3 8 -4 15 -2 15 2 0 9 -7 16 -15z m1200
-143 c-7 -3 -19 3 -28 13 -16 15 -15 16 12 4 15 -7 23 -15 16 -17z m370 -7 c0
-11 -19 -4 -41 15 l-24 21 33 -16 c17 -8 32 -18 32 -20z m-530 -29 c0 -8 3
-16 8 -18 4 -2 21 -19 37 -38 l30 -35 -30 25 c-54 45 -78 80 -55 80 6 0 10 -6
10 -14z m-848 -93 c-6 -2 -10 -9 -6 -14 3 -5 1 -9 -5 -9 -5 0 -12 4 -15 9 -6
9 10 19 29 19 6 0 4 -2 -3 -5z m-995 -39 c-3 -3 -12 -4 -19 -1 -8 3 -5 6 6 6
11 1 17 -2 13 -5z m1314 -24 c31 -25 12 -26 -21 0 -14 11 -20 20 -14 20 7 0
22 -9 35 -20z m669 -11 c0 -6 -4 -7 -10 -4 -5 3 -10 11 -10 16 0 6 5 7 10 4 6
-3 10 -11 10 -16z m-120 -81 c0 -16 -22 6 -44 44 l-19 33 32 -33 c17 -18 31
-38 31 -44z m-479 46 c17 -8 29 -18 26 -20 -3 -3 -20 4 -38 15 -40 25 -31 28
12 5z m-1011 -4 c8 -5 11 -10 5 -10 -5 0 -17 5 -25 10 -8 5 -10 10 -5 10 6 0
17 -5 25 -10z m215 -60 c38 -25 21 -25 -25 0 -19 11 -28 19 -20 20 8 0 29 -9
45 -20z m-390 -110 c3 -6 -1 -7 -9 -4 -18 7 -21 14 -7 14 6 0 13 -4 16 -10z
m88 -7 c-13 -2 -33 -2 -45 0 -13 2 -3 4 22 4 25 0 35 -2 23 -4z m262 -33 c3
-5 -1 -10 -9 -10 -9 0 -16 5 -16 10 0 6 4 10 9 10 6 0 13 -4 16 -10z m-1172
-50 c9 -11 13 -20 7 -20 -5 0 -14 9 -20 20 -6 11 -9 20 -8 20 2 0 11 -9 21
-20z m512 -40 c-3 -5 -11 -10 -16 -10 -6 0 -7 5 -4 10 3 6 11 10 16 10 6 0 7
-4 4 -10z m870 -8 c6 -4 17 -16 25 -27 14 -19 14 -20 -6 -2 -11 9 -26 17 -32
17 -6 0 -14 5 -17 10 -7 12 15 13 30 2z m75 -12 c8 -5 11 -12 7 -16 -4 -4 -15
0 -24 9 -18 18 -8 23 17 7z m-644 -15 c10 -8 14 -15 8 -15 -5 0 -19 7 -30 15
-10 8 -14 15 -8 15 5 0 19 -7 30 -15z m463 -9 c10 -12 9 -14 -5 -12 -10 2 -20
8 -22 14 -5 17 13 15 27 -2z m-749 -36 c0 -5 -7 -7 -15 -4 -8 4 -15 8 -15 10
0 2 7 4 15 4 8 0 15 -4 15 -10z m310 -21 c13 -7 13 -8 0 -8 -8 0 -26 6 -40 15
l-25 15 25 -7 c14 -3 32 -10 40 -15z m-1150 -69 c0 -5 -4 -10 -10 -10 -5 0
-10 5 -10 10 0 6 5 10 10 10 6 0 10 -4 10 -10z m5344 -1582 c-5 -8 -1 -9 12
-5 18 7 18 6 -1 -8 -12 -10 -21 -12 -23 -5 -2 5 -8 8 -12 5 -5 -3 -12 0 -16 6
-4 7 -3 9 4 5 6 -3 13 -2 17 4 3 5 11 10 16 10 6 0 7 -5 3 -12z m-6397 -247
c2 -14 -3 -18 -20 -16 -12 1 -24 3 -26 4 -2 0 4 10 14 21 20 22 27 20 32 -9z
m6554 -88 c-12 -20 -14 -14 -5 12 4 9 9 14 11 11 3 -2 0 -13 -6 -23z m-21 2
c0 -1 -9 -10 -19 -19 -13 -12 -21 -14 -26 -6 -4 6 -1 9 7 8 7 -2 12 2 11 8 -1
6 5 11 13 11 8 0 14 -1 14 -2z m-24 -74 c-3 -5 1 -11 9 -15 8 -3 15 0 15 6 0
6 3 9 6 5 14 -14 -7 -27 -27 -17 -17 9 -19 30 -3 30 3 0 3 -4 0 -9z m-6451
-461 c3 -5 2 -10 -4 -10 -5 0 -13 5 -16 10 -3 6 -2 10 4 10 5 0 13 -4 16 -10z
m-35 -64 c0 -8 -7 -16 -15 -20 -9 -3 -15 0 -15 10 0 8 5 12 10 9 6 -3 10 -1
10 4 0 6 2 11 5 11 3 0 5 -6 5 -14z m5845 -11 c102 -7 128 -13 120 -26 -4 -5
31 -9 84 -9 80 0 98 -3 153 -30 63 -31 128 -84 128 -105 0 -6 11 -22 25 -35
44 -41 34 -41 -94 -4 -37 11 -17 -13 26 -31 24 -10 33 -20 29 -30 -3 -8 0 -15
6 -15 26 0 -9 -19 -42 -23 -33 -4 -32 -4 8 -5 24 -1 41 -6 37 -11 -7 -12 42
-51 64 -51 28 0 58 -27 45 -40 -8 -8 -25 -7 -63 1 -67 14 -76 5 -20 -20 48
-21 46 -23 -21 -22 l-45 1 29 -16 c22 -12 26 -18 15 -25 -10 -6 -2 -9 24 -9
20 0 37 -4 37 -9 0 -5 -15 -7 -32 -6 -39 3 -56 -4 -37 -16 7 -4 10 -11 7 -15
-14 -13 -135 -16 -208 -5 -159 25 -440 42 -808 48 -421 7 -414 5 -252 63 56
21 64 23 90 27 13 2 27 8 30 12 3 4 27 13 54 20 68 17 241 94 252 113 10 16
77 38 118 38 29 0 53 8 76 25 19 14 41 25 50 25 8 0 24 6 35 13 29 19 93 37
145 40 42 2 40 3 -33 16 -91 16 -108 30 -40 32 44 2 41 3 -32 15 l-80 13 120
-3 c66 -2 111 -2 100 1 -11 2 -51 10 -90 18 -58 13 -103 19 -167 24 -5 1 -8 5
-8 10 0 5 9 7 20 4 12 -3 20 0 20 7 0 6 8 9 18 6 9 -2 58 -7 107 -11z m-255 1
c0 -3 -4 -8 -10 -11 -5 -3 -10 -1 -10 4 0 6 5 11 10 11 6 0 10 -2 10 -4z
m1034 -12 c3 -8 2 -12 -4 -9 -6 3 -10 10 -10 16 0 14 7 11 14 -7z m-1238 -16
c3 -4 11 -5 17 -2 8 5 9 3 2 -4 -7 -7 -23 -8 -49 -2 -22 5 -44 7 -48 4 -4 -3
-8 0 -8 5 0 13 78 12 86 -1z m-152 -23 c-5 -12 -10 -13 -20 -4 -19 15 -18 19
6 19 13 0 18 -5 14 -15z m474 8 c-16 -2 -40 -2 -55 0 -16 2 -3 4 27 4 30 0 43
-2 28 -4z m-5688 -13 c0 -5 -2 -10 -4 -10 -3 0 -8 5 -11 10 -3 6 -1 10 4 10 6
0 11 -4 11 -10z m5748 -44 c6 -6 -55 -11 -73 -6 -5 2 -32 3 -60 3 -37 -1 -45
1 -30 8 21 9 153 5 163 -5z m-839 -14 c-44 -33 -73 -48 -137 -71 -72 -26 -97
-22 -28 4 56 21 144 64 133 65 -21 1 7 20 30 20 l26 0 -24 -18z m-4379 -16 c0
-2 -7 -7 -16 -10 -8 -3 -12 -2 -9 4 6 10 25 14 25 6z m5187 -12 c-3 -3 -12 -4
-19 -1 -8 3 -5 6 6 6 11 1 17 -2 13 -5z m-5063 -15 c-2 -4 -21 -13 -42 -20
-20 -6 -56 -20 -79 -30 -41 -18 -79 -17 -67 3 3 5 13 7 21 4 8 -3 12 -2 9 2
-10 17 12 33 55 40 56 10 109 10 103 1z m5022 -6 c-10 -11 -37 -12 -30 -2 3 5
12 9 21 9 9 0 13 -3 9 -7z m-46 -12 c0 -6 -4 -13 -10 -16 -5 -3 -10 1 -10 9 0
9 5 16 10 16 6 0 10 -4 10 -9z m-4330 -36 c0 -2 -9 -3 -19 -2 -11 0 -18 5 -15
9 4 6 34 0 34 -7z m115 -1 c9 -9 13 -19 10 -22 -3 -3 -15 4 -27 16 -13 12 -17
22 -11 22 6 0 19 -7 28 -16z m235 6 c8 -5 11 -10 5 -10 -5 0 -17 5 -25 10 -8
5 -10 10 -5 10 6 0 17 -5 25 -10z m-860 -22 c0 -13 -23 -5 -28 10 -2 7 2 10
12 6 9 -3 16 -11 16 -16z m-160 2 c-13 -8 -13 -10 2 -10 9 0 20 5 23 10 7 12
25 13 25 2 0 -18 -77 -34 -160 -34 -14 0 -29 -5 -33 -11 -6 -9 -10 -9 -13 0
-3 7 -13 9 -22 6 -11 -4 -14 -3 -7 4 13 13 103 35 115 28 4 -3 19 -1 32 4 12
6 30 10 38 10 13 1 13 0 0 -9z m935 0 c3 -6 -1 -7 -9 -4 -18 7 -21 14 -7 14 6
0 13 -4 16 -10z m-826 -16 c-6 -7 -17 -10 -25 -7 -8 3 -14 0 -14 -6 0 -6 -7
-11 -16 -11 -13 0 -13 2 -2 13 24 25 76 34 57 11z m3931 12 c0 -2 -7 -7 -16
-10 -8 -3 -12 -2 -9 4 6 10 25 14 25 6z m-3835 -35 c-3 -5 -30 -15 -60 -21
-30 -6 -57 -16 -60 -21 -4 -5 -21 -9 -38 -10 -30 -1 -30 -1 -7 -8 22 -6 23 -8
7 -14 -30 -11 -77 -8 -78 6 0 10 -2 10 -6 0 -2 -7 -11 -13 -19 -13 -9 0 -13 4
-10 9 3 5 -1 12 -10 15 -24 9 -62 7 -69 -4 -9 -15 -22 -12 -22 4 0 16 80 30
85 15 2 -5 10 -9 18 -9 9 0 12 5 9 10 -3 6 0 10 7 10 7 0 24 3 38 6 20 5 22 4
10 -6 -12 -9 -7 -10 20 -4 19 3 37 10 40 14 3 5 32 13 65 18 82 13 87 13 80 3z
m75 -1 c0 -5 -2 -10 -4 -10 -3 0 -8 5 -11 10 -3 6 -1 10 4 10 6 0 11 -4 11
-10z m-533 -22 c-8 -13 -20 -22 -26 -21 -6 2 -8 -3 -5 -11 3 -7 -2 -20 -10
-29 -9 -9 -16 -18 -16 -20 0 -14 -61 -67 -77 -67 -10 0 -14 3 -7 8 6 4 14 15
17 26 7 18 6 18 -17 2 -49 -32 -38 -15 18 29 32 25 63 45 68 45 5 0 6 5 3 10
-4 7 -13 6 -27 -1 -20 -11 -20 -10 -4 12 8 13 28 25 43 27 15 2 30 5 32 8 15
14 21 0 8 -18z m67 1 c-3 -5 -14 -9 -26 -9 -17 0 -18 3 -8 14 12 15 44 10 34
-5z m126 11 c-8 -5 -26 -9 -40 -9 -23 1 -23 2 5 9 43 11 52 11 35 0z m310 0
c0 -5 -10 -10 -22 -10 -19 0 -20 2 -8 10 19 13 30 13 30 0z m79 -14 c-2 -2
-20 -6 -39 -10 -25 -4 -31 -3 -20 4 14 9 69 15 59 6z m-131 -13 c-10 -2 -26
-2 -35 0 -10 3 -2 5 17 5 19 0 27 -2 18 -5z m-58 -27 c0 -2 -15 -6 -34 -8 -19
-2 -32 0 -30 4 5 8 64 12 64 4z m3596 -11 c-20 -15 -36 -19 -36 -10 0 5 38 23
50 24 3 0 -4 -6 -14 -14z m-3526 -15 c20 -6 21 -8 5 -8 -11 0 -29 3 -40 8 -25
11 1 11 35 0z m210 1 c0 -5 -9 -7 -20 -4 -11 3 -20 7 -20 9 0 2 9 4 20 4 11 0
20 -4 20 -9z m-664 -10 c-3 -5 -16 -11 -28 -14 -22 -6 -22 -5 -4 8 22 17 40
20 32 6z m114 -1 c0 -6 -6 -10 -12 -9 -34 4 -69 -2 -63 -11 4 -6 11 -7 17 -4
7 4 8 2 4 -4 -4 -7 -14 -12 -22 -12 -8 0 -12 5 -9 10 3 6 0 10 -7 11 -21 1 44
28 70 29 12 0 22 -5 22 -10z m110 -5 c-14 -8 -35 -14 -47 -15 -13 0 -23 -4
-23 -10 0 -5 -12 -10 -26 -10 -14 0 -23 4 -19 10 4 6 11 8 16 5 5 -4 9 -2 9 3
0 11 55 30 90 31 l25 0 -25 -14z m115 5 c-3 -5 3 -10 13 -10 11 0 25 -7 32
-15 10 -12 9 -15 -6 -16 -33 -2 -59 3 -65 12 -3 5 -14 7 -24 3 -13 -5 -16 -4
-11 5 8 12 41 29 59 30 5 1 5 -3 2 -9z m414 -21 c-25 -16 -32 -9 -13 12 12 13
20 16 22 9 3 -7 -2 -16 -9 -21z m-213 10 c3 -6 1 -16 -6 -22 -10 -9 -12 -8 -7
5 3 9 1 19 -6 22 -9 3 -9 5 0 5 6 1 15 -4 19 -10z m1559 -7 c-3 -3 -11 0 -18
7 -9 10 -8 11 6 5 10 -3 15 -9 12 -12z m-1599 -7 c18 -13 18 -14 -4 -8 -12 3
-25 9 -28 14 -8 14 10 11 32 -6z m-729 -40 c-7 -14 -16 -25 -20 -25 -8 0 -2
14 16 38 15 19 16 14 4 -13z m838 15 c3 -6 -1 -7 -9 -4 -18 7 -21 14 -7 14 6
0 13 -4 16 -10z m65 0 c0 -5 -2 -10 -4 -10 -3 0 -8 5 -11 10 -3 6 -1 10 4 10
6 0 11 -4 11 -10z m3200 6 c0 -3 -4 -8 -10 -11 -5 -3 -10 -1 -10 4 0 6 5 11
10 11 6 0 10 -2 10 -4z m-3533 -21 c28 -12 43 -13 73 -4 28 9 42 8 56 0 17
-11 15 -11 -9 -6 -19 4 -26 2 -22 -5 3 -5 0 -10 -7 -10 -18 -1 22 -23 47 -27
11 -1 47 -4 80 -7 33 -2 77 -12 98 -20 20 -9 37 -14 37 -11 0 3 -16 13 -35 21
-19 8 -35 19 -35 24 0 6 -6 10 -14 10 -16 0 -31 18 -23 27 3 2 27 -5 52 -16
26 -12 55 -21 64 -22 12 0 11 -2 -4 -9 -16 -7 -12 -9 18 -7 23 1 42 -4 46 -12
5 -7 15 -11 22 -9 8 3 20 -1 27 -9 25 -24 36 -13 12 12 -26 28 -12 35 15 8 12
-12 33 -17 69 -16 28 0 54 -4 57 -8 3 -5 25 -12 50 -15 24 -4 52 -10 62 -16 9
-5 22 -6 27 -3 14 9 72 -4 65 -14 -2 -5 -57 -11 -122 -15 -65 -4 -219 -18
-343 -32 -123 -14 -232 -23 -242 -21 -10 3 -18 1 -18 -4 0 -5 -11 -9 -25 -9
-14 0 -25 5 -25 10 0 6 -5 10 -11 10 -6 0 -9 -6 -6 -14 4 -11 -17 -18 -90 -31
-112 -20 -159 -13 -157 23 1 18 -1 20 -13 11 -7 -7 -16 -9 -20 -5 -3 3 -1 6 7
6 10 0 10 3 0 15 -11 13 -3 14 61 12 45 -2 74 -8 77 -15 2 -8 8 -8 19 3 16 16
58 21 48 6 -3 -5 -1 -12 5 -16 5 -3 10 1 10 10 0 8 -7 18 -15 21 -8 4 -12 11
-8 17 4 6 0 8 -10 4 -17 -6 -131 12 -123 20 2 2 26 7 54 10 43 4 57 0 116 -31
36 -20 66 -31 66 -26 0 6 -6 10 -12 10 -7 0 -24 10 -38 21 l-25 20 25 -6 c14
-4 29 -11 35 -16 5 -5 27 -8 50 -7 40 1 40 1 5 5 -19 3 -42 11 -50 18 -8 7
-55 21 -105 30 -118 23 -127 26 -90 35 l30 8 -35 1 c-20 0 -42 -5 -50 -11 -8
-7 -6 -3 3 8 23 27 59 35 83 17 10 -7 39 -12 68 -11 l51 2 -47 3 c-72 6 -58
23 19 23 89 0 76 9 -15 11 -40 1 -72 6 -72 11 0 6 6 8 14 5 8 -3 20 1 26 9 15
18 22 18 67 -1z m388 -3 c-3 -3 -11 0 -18 7 -9 10 -8 11 6 5 10 -3 15 -9 12
-12z m-550 -1 c3 -5 1 -12 -5 -16 -5 -3 -10 -2 -10 4 0 5 -8 12 -17 14 -14 4
-13 5 4 6 12 0 24 -3 28 -8z m-80 -20 c3 -8 15 -11 30 -9 32 7 31 3 -2 -27
-25 -22 -36 -24 -110 -22 -46 1 -83 3 -83 4 0 1 21 12 48 24 35 17 42 23 28
27 -15 3 -16 6 -5 13 21 13 88 6 94 -10z m455 9 c18 -12 2 -12 -25 0 -13 6
-15 9 -5 9 8 0 22 -4 30 -9z m137 -6 c-3 -3 -12 -4 -19 -1 -8 3 -5 6 6 6 11 1
17 -2 13 -5z m3053 -29 c0 -5 -5 -3 -10 5 -5 8 -10 20 -10 25 0 6 5 3 10 -5 5
-8 10 -19 10 -25z m-3800 15 c0 -5 -5 -10 -11 -10 -5 0 -7 5 -4 10 3 6 8 10
11 10 2 0 4 -4 4 -10z m3753 -19 c3 -14 1 -18 -9 -14 -15 6 -18 16 -7 26 9 10
10 9 16 -12z m-3608 -45 c39 -3 77 -5 85 -5 10 -1 11 -4 3 -12 -13 -13 -226 8
-217 22 2 5 17 6 32 4 15 -3 59 -7 97 -9z m-100 -20 l50 -14 -43 -1 c-26 -1
-41 -5 -37 -11 3 -5 1 -10 -4 -10 -6 0 -11 4 -11 9 0 5 -11 12 -25 15 -14 4
-25 11 -25 16 0 14 36 12 95 -4z m4495 -2 c-8 -2 -98 -13 -200 -24 -208 -24
-214 -24 -325 -46 -95 -18 -196 -45 -323 -85 -90 -28 -155 -39 -122 -20 33 20
313 101 430 125 149 30 352 54 470 54 47 0 78 -2 70 -4z m-4380 -18 c0 -2 -11
-6 -25 -8 -14 -3 -25 -1 -25 3 0 5 11 9 25 9 14 0 25 -2 25 -4z m47 -12 c-3
-3 -12 -4 -19 -1 -8 3 -5 6 6 6 11 1 17 -2 13 -5z m5808 -4 c7 -11 -9 -11 -45
0 -24 8 -24 8 7 9 17 1 35 -3 38 -9z m-2310 -10 c-3 -5 -12 -10 -18 -10 -7 0
-6 4 3 10 19 12 23 12 15 0z m-1565 -23 c133 -17 293 -48 286 -55 -3 -2 -33 1
-68 7 -74 13 -134 19 -278 26 -264 13 -363 15 -623 16 -153 1 -276 3 -274 6 3
2 45 7 93 10 49 3 91 8 94 10 11 11 660 -6 770 -20z m-2045 -54 c-11 -2 -32
-8 -47 -13 -18 -6 -30 -5 -34 2 -4 6 -3 9 2 6 5 -3 18 -2 29 3 11 4 31 7 45 7
20 0 21 -1 5 -5z m5245 -2 c154 -9 239 -19 350 -42 25 -6 51 -11 57 -11 16 -2
6 -13 -10 -13 -7 0 -13 -10 -13 -23 -1 -19 3 -23 18 -19 16 4 17 3 7 -9 -6 -8
-20 -14 -30 -14 -13 0 -19 -7 -19 -22 0 -19 2 -20 10 -8 10 15 11 12 14 -22 1
-7 8 -18 16 -25 8 -6 15 -15 15 -20 0 -5 8 -17 18 -27 9 -10 15 -21 12 -26 -6
-10 24 -22 37 -14 5 3 16 -2 24 -12 13 -16 15 -16 10 -2 -3 9 0 18 5 20 6 2 7
10 4 19 -6 15 -38 19 -51 6 -10 -9 -24 -9 -24 1 0 10 51 32 61 26 5 -3 9 0 9
6 0 6 5 8 10 5 6 -4 8 -10 5 -15 -3 -4 3 -11 13 -16 24 -11 52 -13 47 -3 -3 4
5 15 17 23 18 13 19 16 5 16 -9 0 -17 -4 -17 -10 0 -5 -4 -10 -10 -10 -5 0
-10 7 -10 15 0 8 6 15 14 15 8 0 16 7 20 15 3 8 13 15 21 15 9 0 13 5 10 10
-3 6 -1 10 4 10 6 0 11 -6 11 -12 0 -9 4 -8 10 2 8 13 10 12 10 -2 0 -16 -24
-24 -55 -18 -5 1 -1 -8 9 -19 11 -12 31 -21 47 -21 15 0 31 -5 35 -11 4 -8 9
-8 17 0 6 6 23 11 38 11 15 0 32 7 39 15 11 13 6 15 -36 16 -27 0 -57 4 -67 8
-16 6 -17 9 -4 19 8 7 25 11 38 8 13 -2 29 1 35 5 20 16 106 -52 131 -102 34
-69 51 -112 58 -144 14 -74 26 -185 22 -202 -3 -10 -5 0 -6 22 -2 60 -12 70
-45 44 -23 -18 -27 -28 -23 -58 7 -69 37 -117 69 -112 4 0 5 -14 1 -32 -6 -30
-15 -42 -29 -35 -3 2 -13 -13 -22 -33 -9 -20 -21 -37 -27 -38 -36 -6 -56 -15
-71 -32 -24 -27 -48 -24 -99 11 -24 17 -47 30 -52 30 -4 0 -21 16 -36 35 -15
19 -33 35 -38 35 -16 0 -69 47 -62 54 7 7 -88 97 -96 91 -4 -1 -12 3 -19 11
-11 12 -9 16 12 24 13 5 23 15 21 22 -8 34 -18 58 -24 58 -3 0 -7 11 -7 24 -2
25 -75 120 -100 130 -8 3 -14 12 -14 19 0 7 -22 28 -50 46 -27 18 -50 36 -50
39 0 4 -21 19 -47 32 -27 14 -49 28 -51 32 -8 17 -169 68 -272 87 -109 19
-210 25 -415 23 -98 -1 -312 -42 -348 -67 -12 -8 -30 -15 -40 -15 -10 0 -35
-9 -57 -20 -22 -11 -47 -21 -57 -23 -10 -1 -24 -7 -32 -11 -10 -7 -12 -5 -6 5
6 11 5 12 -6 2 -7 -7 -24 -13 -37 -13 -15 0 -22 -5 -19 -12 3 -9 -7 -13 -34
-13 -29 0 -38 4 -34 14 4 11 2 11 -8 3 -8 -7 -17 -8 -21 -4 -4 4 -6 0 -4 -8 2
-11 -6 -15 -34 -13 -21 1 -38 -3 -38 -8 0 -6 5 -7 10 -4 6 3 10 2 10 -4 0 -6
7 -8 15 -5 8 4 15 2 15 -4 0 -13 -39 -22 -46 -10 -3 5 -11 2 -18 -8 -7 -9 -30
-18 -52 -20 -21 -3 -45 -6 -51 -9 -7 -2 -13 0 -13 6 0 6 -7 3 -16 -5 -8 -9
-18 -16 -22 -17 -4 0 -15 -2 -25 -4 -9 -2 -15 1 -11 6 3 5 0 9 -6 9 -6 0 -9 4
-5 9 9 15 -23 40 -45 34 -27 -7 -26 -23 1 -18 12 3 18 1 15 -3 -4 -4 -12 -8
-17 -8 -5 -1 -10 -2 -11 -4 -2 -1 -11 -3 -21 -5 -11 -2 -15 1 -10 8 11 18 12
38 2 31 -5 -3 -6 -10 -3 -16 8 -12 -34 -1 -53 14 -15 12 -33 2 -33 -17 0 -8
-4 -17 -10 -20 -15 -9 0 25 32 72 27 40 113 102 124 90 3 -3 -4 -10 -15 -17
-12 -6 -19 -15 -16 -20 7 -12 42 -1 57 18 10 12 10 14 1 8 -7 -4 -13 -5 -13
-2 0 7 61 36 77 36 7 0 13 5 13 10 0 6 3 9 8 9 15 -3 73 14 78 22 3 5 10 7 15
4 5 -4 9 -1 9 5 0 6 4 9 8 6 5 -3 29 1 54 9 26 7 48 11 51 9 3 -3 8 0 13 7 4
8 3 10 -4 5 -7 -4 -12 -2 -12 4 0 8 10 9 29 5 19 -4 38 -1 53 8 25 16 75 22
258 33 63 4 117 8 119 10 8 7 649 3 801 -5z m-5190 -5 c0 -3 -4 -8 -10 -11 -5
-3 -10 -1 -10 4 0 6 5 11 10 11 6 0 10 -2 10 -4z m1545 -49 c46 -3 50 -5 50
-28 -1 -24 1 -25 39 -18 22 4 50 3 62 -1 12 -5 31 -6 43 -3 12 3 21 1 21 -5 0
-14 -37 -25 -51 -16 -7 4 -9 3 -6 -3 4 -6 35 -14 69 -18 51 -6 58 -9 38 -15
-21 -7 -22 -8 -5 -10 11 -1 36 -1 55 -1 27 1 31 -1 20 -8 -12 -9 -9 -11 14
-11 21 0 27 -4 22 -15 -4 -12 4 -15 37 -16 23 0 37 -3 30 -6 -10 -3 -10 -7 0
-18 7 -7 15 -11 20 -8 4 2 7 -1 7 -7 0 -7 8 -9 22 -5 17 6 20 4 15 -9 -4 -9
-1 -16 5 -16 23 0 -1 -12 -34 -17 -18 -2 -37 -9 -43 -15 -7 -8 -6 -9 2 -4 24
13 114 -6 142 -30 l26 -23 -27 1 c-15 1 -25 5 -23 8 2 3 0 12 -4 19 -7 10 -13
8 -29 -10 -19 -19 -22 -20 -28 -6 -8 22 -50 22 -63 0 -10 -17 -10 -17 -11 -1
0 18 -5 19 -79 18 -19 0 -32 2 -28 6 9 10 -40 34 -70 34 -13 0 -22 4 -18 9 3
6 -9 7 -30 4 -34 -5 -99 13 -91 26 2 3 -21 6 -52 7 -81 0 -229 11 -239 17 -10
6 -128 1 -258 -13 -55 -5 -125 -12 -155 -14 -98 -8 -314 -44 -400 -66 -25 -6
-52 -13 -60 -15 -8 -2 -39 -13 -67 -24 -29 -12 -53 -18 -53 -15 0 4 -7 1 -15
-6 -9 -7 -30 -10 -55 -6 -22 3 -40 1 -40 -4 0 -6 -9 -6 -24 0 -16 6 -27 5 -35
-3 -9 -9 -11 -7 -6 8 5 16 5 17 -4 4 -12 -19 -78 -18 -73 0 1 7 -2 10 -7 7
-11 -7 -43 22 -39 36 4 12 23 11 23 -1 0 -5 3 -13 8 -17 4 -4 7 0 7 10 0 9 5
14 10 11 13 -8 13 1 0 26 -7 13 -7 19 0 19 5 0 10 -4 10 -10 0 -5 7 -7 16 -3
14 5 12 8 -7 17 -18 8 -24 19 -24 42 0 42 19 62 63 67 32 3 30 4 -13 6 -67 2
-45 14 80 41 369 79 898 118 1310 97z m962 -3 c-3 -3 -12 -4 -19 -1 -8 3 -5 6
6 6 11 1 17 -2 13 -5z m118 -25 c36 -14 -25 -9 -70 6 l-40 13 45 -5 c25 -3 54
-9 65 -14z m3052 15 c-3 -3 -12 -4 -19 -1 -8 3 -5 6 6 6 11 1 17 -2 13 -5z
m101 -28 c34 -12 26 -26 -15 -26 -42 0 -69 13 -60 27 7 11 41 11 75 -1z m-832
-20 c137 -24 314 -84 314 -107 0 -11 -52 -4 -80 11 -12 6 -28 9 -35 6 -7 -2
-16 -2 -19 2 -7 7 -17 8 -86 15 -26 3 -56 9 -66 15 -11 5 -27 6 -37 3 -11 -4
-42 -6 -70 -4 -61 3 -239 2 -282 -2 -16 -1 -47 -3 -68 -4 -23 -1 -36 -5 -32
-11 3 -5 0 -10 -9 -10 -8 0 -16 5 -18 11 -3 8 -10 8 -26 -2 -17 -11 -24 -11
-34 -1 -16 16 -28 15 -28 -3 0 -8 -7 -15 -15 -15 -8 0 -15 8 -15 18 0 14 -4
12 -20 -8 -18 -24 -20 -24 -37 -7 -16 15 -16 19 -3 27 8 5 21 8 28 5 6 -2 12
0 12 5 0 5 19 14 43 20 23 6 49 14 57 17 21 8 48 14 95 19 22 3 69 9 105 13
83 11 223 5 326 -13z m-1911 -26 c-24 -10 -99 -10 -140 0 -20 5 1 8 65 8 61 0
88 -2 75 -8z m2755 -20 c0 -4 -6 -11 -12 -13 -10 -4 -9 -8 2 -17 13 -10 13
-11 -2 -6 -12 3 -18 0 -19 -9 -3 -29 -4 -33 -11 -39 -5 -3 -6 -3 -3 1 3 3 -1
13 -8 21 -9 13 -9 14 1 8 6 -4 12 -3 12 3 0 5 3 16 6 25 3 9 1 16 -6 16 -6 0
-18 6 -26 14 -12 13 -11 15 8 18 25 4 58 -8 58 -22z m-3877 3 c-7 -2 -19 -2
-25 0 -7 3 -2 5 12 5 14 0 19 -2 13 -5z m376 -52 c7 -5 12 -14 9 -21 -2 -7
-10 -4 -22 9 -19 21 -12 28 13 12z m126 -21 c3 -6 -1 -10 -9 -10 -8 0 -20 9
-26 21 -11 19 -10 20 9 10 11 -6 23 -16 26 -21z m-255 10 c0 -5 -4 -10 -10
-10 -5 0 -10 5 -10 10 0 6 5 10 10 10 6 0 10 -4 10 -10z m2100 6 c0 -3 -4 -8
-10 -11 -5 -3 -10 -1 -10 4 0 6 5 11 10 11 6 0 10 -2 10 -4z m1050 -37 c0 -3
-11 -4 -24 -2 -16 3 -23 10 -19 19 4 10 9 11 24 1 10 -6 19 -15 19 -18z
m-5213 -5 c-3 -3 -12 -4 -19 -1 -8 3 -5 6 6 6 11 1 17 -2 13 -5z m2358 -6 c3
-3 0 -8 -7 -11 -7 -2 -19 2 -26 9 -11 12 -9 13 7 11 11 -2 23 -6 26 -9z
m-2390 -48 c-2 -8 -4 -18 -4 -22 -1 -5 -6 -8 -12 -8 -8 0 -9 4 0 13 13 17 2
31 -14 17 -8 -7 -12 -5 -12 5 0 9 9 14 22 13 15 -1 22 -8 20 -18z m1345 6 c0
-3 -4 -8 -10 -11 -5 -3 -10 -1 -10 4 0 6 5 11 10 11 6 0 10 -2 10 -4z m-50
-16 c0 -5 -2 -10 -4 -10 -3 0 -8 5 -11 10 -3 6 -1 10 4 10 6 0 11 -4 11 -10z
m80 -4 c0 -2 -7 -7 -16 -10 -8 -3 -12 -2 -9 4 6 10 25 14 25 6z m3421 -44 c0
7 4 4 9 -7 5 -11 9 -14 9 -7 1 10 6 10 22 2 11 -7 27 -9 35 -6 8 3 14 0 14 -7
0 -7 11 -12 28 -11 15 1 39 -5 54 -13 15 -7 30 -12 33 -11 8 4 35 -52 35 -72
0 -10 11 -28 25 -39 28 -21 40 -57 24 -67 -6 -3 -16 -1 -22 6 -9 10 -9 11 3 5
12 -7 13 -6 3 7 -7 8 -10 18 -6 21 3 4 -4 7 -16 7 -21 0 -21 -1 -7 -22 11 -16
12 -25 5 -35 -8 -9 -5 -15 14 -24 19 -9 31 -8 56 5 29 16 31 16 31 -2 0 -27 8
-32 40 -20 23 7 34 6 57 -9 40 -26 65 -52 58 -62 -3 -5 2 -21 10 -37 7 -15 12
-30 10 -33 -1 -3 10 -6 27 -7 22 -1 28 2 23 14 -4 12 -3 13 10 2 8 -7 15 -10
15 -6 0 3 23 -8 50 -24 28 -17 53 -30 55 -30 2 0 16 -5 32 -12 15 -7 33 -12
40 -13 12 0 123 -112 123 -124 0 -4 11 -21 25 -37 14 -16 30 -44 36 -61 6 -18
15 -33 20 -33 6 0 8 -4 4 -9 -3 -5 1 -15 8 -23 8 -7 12 -19 9 -26 -2 -6 3 -15
12 -18 9 -3 13 -10 10 -15 -3 -5 0 -9 6 -9 6 0 8 -5 5 -11 -4 -5 -1 -24 6 -40
8 -21 14 -27 20 -18 4 8 3 20 -4 28 -9 12 -9 13 1 7 15 -9 14 -9 2 33 -5 19
-7 31 -3 27 4 -3 17 1 30 10 28 18 103 15 127 -5 13 -11 17 -9 26 10 15 36 50
180 50 206 0 13 4 23 8 23 9 0 -8 -122 -34 -240 -9 -41 -19 -91 -21 -110 -3
-19 -10 -41 -17 -49 -9 -12 -8 -13 3 -6 9 5 7 -3 -6 -21 -11 -16 -33 -53 -49
-82 -16 -30 -36 -67 -45 -83 -69 -124 -361 -186 -924 -196 -431 -8 -750 20
-1011 87 -202 52 -288 114 -376 267 -114 197 -227 587 -241 828 -4 62 -3 72 4
45 10 -34 11 -35 57 -32 26 2 54 6 62 9 18 7 45 11 133 19 58 5 67 3 67 -10 0
-14 4 -15 21 -6 28 15 38 4 13 -15 -18 -14 -18 -14 3 -10 20 3 21 2 10 -22 -6
-14 -23 -38 -38 -54 -35 -38 -42 -67 -19 -79 25 -13 27 -13 33 10 4 16 13 20
44 20 21 0 47 -7 57 -15 23 -17 40 -20 31 -5 -3 6 -2 10 3 10 6 0 8 9 5 20 -5
19 -2 20 41 15 38 -5 48 -3 53 11 6 16 7 16 14 -2 7 -18 8 -18 8 1 1 12 6 26
13 33 7 7 8 12 2 12 -5 0 -10 9 -10 20 0 10 2 17 4 15 3 -2 11 3 19 11 8 8 19
11 24 8 6 -3 13 3 16 15 3 12 10 21 15 21 6 0 19 10 30 22 15 18 21 20 27 9 7
-11 10 -9 15 6 6 20 45 43 71 43 18 0 19 -23 2 -72 -18 -51 -11 -150 12 -197
15 -28 31 -42 63 -54 62 -23 155 -39 178 -32 12 4 20 2 20 -6 0 -9 4 -8 15 1
12 10 15 10 15 0 0 -9 3 -10 14 -1 10 9 16 8 25 -3 16 -20 152 -12 190 10 28
16 79 97 87 136 17 88 -7 193 -53 232 -55 46 -57 105 -2 66 20 -15 29 -17 30
-8z m-2846 -2 c3 -5 -1 -10 -9 -10 -9 0 -16 5 -16 10 0 6 4 10 9 10 6 0 13 -4
16 -10z m-1961 -38 c-7 -26 -17 -28 -35 -5 -8 9 -9 14 -3 10 7 -4 14 2 18 15
3 15 9 19 15 13 6 -6 8 -20 5 -33z m1996 14 c0 -11 -19 -15 -25 -6 -3 5 1 10
9 10 9 0 16 -2 16 -4z m1387 -48 c-2 -13 -4 -5 -4 17 -1 22 1 32 4 23 2 -10 2
-28 0 -40z m-3353 27 c3 -9 0 -15 -9 -15 -9 0 -12 6 -9 15 4 8 7 15 9 15 2 0
5 -7 9 -15z m4566 -65 c0 -18 -34 -28 -60 -18 l-25 9 23 20 c18 14 28 16 43 9
10 -6 19 -15 19 -20z m-795 -30 c-3 -5 -11 -10 -16 -10 -6 0 -7 5 -4 10 3 6
11 10 16 10 6 0 7 -4 4 -10z m-2459 -26 c43 -2 163 -72 148 -87 -3 -2 3 -4 13
-3 26 1 83 -27 83 -41 0 -7 6 -13 13 -13 26 -1 50 -30 49 -60 0 -17 3 -28 8
-25 13 8 42 -6 37 -19 -3 -7 9 -11 34 -11 22 0 39 3 39 8 0 4 4 6 9 2 5 -3 12
-1 16 5 3 5 11 10 16 10 6 0 7 -5 3 -12 -5 -7 -3 -8 6 -3 14 9 98 9 137 1 13
-3 25 0 28 5 4 5 10 7 15 4 14 -9 -13 69 -29 81 -9 7 -11 13 -3 18 6 3 13 2
17 -4 11 -18 26 -10 20 11 -6 19 -4 20 31 13 21 -4 43 -12 49 -18 7 -6 27 -22
45 -36 18 -14 58 -49 88 -77 30 -29 59 -53 64 -53 5 0 6 -5 2 -11 -3 -6 -1
-14 5 -18 23 -15 20 -57 -10 -151 -27 -81 -32 -115 -37 -232 -2 -76 -2 -138 2
-138 4 0 27 42 51 93 24 50 53 100 65 109 25 22 25 21 -1 -44 -83 -212 -170
-337 -280 -401 -151 -89 -635 -191 -999 -212 -63 -4 -126 -9 -140 -11 -38 -6
-547 -5 -615 1 -58 5 -139 16 -160 21 -10 2 -50 8 -122 20 -21 3 -72 17 -114
30 -64 20 -84 32 -122 73 -86 92 -170 307 -213 544 -7 39 12 80 26 56 5 -8 13
-8 26 -1 20 11 141 24 209 23 25 -1 42 -7 48 -16 6 -12 12 -13 22 -5 10 8 16
7 24 -7 6 -10 11 -14 11 -10 0 5 5 5 11 1 18 -11 153 -11 168 0 11 8 13 8 8 0
-4 -7 0 -17 8 -24 13 -11 14 -10 10 2 -3 8 2 21 12 29 10 7 15 10 11 5 -8 -10
20 -41 29 -32 3 3 12 1 19 -5 15 -13 48 5 64 36 10 19 10 19 6 -3 -3 -17 -1
-21 7 -14 11 8 47 20 85 28 6 1 12 -3 12 -9 0 -5 2 -8 5 -5 10 9 -7 38 -18 31
-6 -4 -7 -1 -3 6 6 9 13 8 29 -6 12 -9 16 -11 10 -3 -7 8 -13 22 -13 33 0 11
5 17 13 14 6 -2 11 -12 11 -21 -2 -20 15 -21 43 -1 12 8 28 12 37 9 9 -3 16
-1 16 6 0 6 -4 9 -9 6 -4 -3 -17 2 -27 10 -10 9 -13 13 -6 9 45 -23 70 -12 49
23 -5 6 -5 17 -2 22 4 6 -8 10 -29 10 -24 0 -36 -5 -36 -14 0 -7 -6 -19 -14
-25 -12 -10 -17 -8 -26 9 -9 16 -15 19 -25 10 -9 -8 -15 -8 -20 0 -3 5 -1 10
5 10 6 0 9 4 6 8 -3 5 7 8 22 7 15 -2 19 0 10 2 -10 2 -19 9 -19 14 -1 5 -2
15 -3 22 0 6 -7 13 -13 13 -7 1 -20 2 -28 3 -13 1 -14 5 -5 21 10 19 4 25 -22
21 -5 0 -8 4 -8 10 0 6 7 8 16 5 9 -3 19 -6 24 -6 4 0 11 -7 14 -16 4 -10 2
-13 -6 -8 -7 4 -8 3 -4 -4 10 -17 29 -15 23 3 -5 11 0 13 26 8 18 -4 46 -7 62
-8 17 0 33 -4 37 -10 5 -6 8 -4 8 5 0 13 1 13 10 0 5 -8 10 -10 10 -5 0 6 17
9 40 7 22 -2 40 -8 40 -13 0 -5 3 -8 8 -7 4 1 31 -6 61 -15 87 -27 323 -16
342 15 7 12 30 19 59 19 18 1 60 20 76 35 18 16 51 85 60 124 12 56 13 60 3
60 -4 0 -6 6 -3 13 3 8 -2 34 -11 58 -30 82 -30 83 -8 77 12 -3 27 -2 34 3 7
4 22 2 33 -4 12 -6 35 -12 52 -13z m-292 -29 c10 -26 -40 -41 -72 -21 -10 6
-10 11 -1 22 15 19 65 18 73 -1z m5073 -102 c-3 -10 -5 -4 -5 12 0 17 2 24 5
18 2 -7 2 -21 0 -30z m-10 -275 c-3 -7 -5 -2 -5 12 0 14 2 19 5 13 2 -7 2 -19
0 -25z m-6704 4 c8 -7 19 -49 26 -98 16 -114 91 -398 140 -528 46 -122 90
-195 153 -253 77 -70 170 -106 363 -139 209 -36 803 -26 1195 21 151 18 185
18 105 -1 -33 -7 -71 -16 -85 -19 -14 -4 -31 -7 -37 -7 -7 -1 -13 -5 -13 -10
0 -5 -4 -7 -9 -4 -4 3 -35 -1 -67 -10 -33 -9 -70 -18 -84 -20 -14 -3 -43 -10
-65 -16 -22 -5 -51 -12 -65 -14 -22 -4 -68 -13 -95 -20 -5 -1 -35 -8 -65 -14
-55 -12 -80 -16 -155 -26 -67 -9 -70 -10 -80 -15 -6 -3 -20 -4 -32 -3 -13 0
-23 -2 -23 -5 0 -4 -8 -7 -17 -7 -34 -2 -87 -15 -99 -25 -7 -5 -24 -8 -38 -5
-14 3 -28 1 -31 -4 -3 -5 -13 -9 -23 -9 -49 -1 -82 -7 -93 -18 -6 -6 -17 -9
-25 -6 -7 3 -28 0 -46 -6 -18 -6 -45 -12 -60 -13 -16 -1 -28 -5 -28 -8 0 -3
-15 -6 -32 -7 -34 -1 -95 -10 -138 -19 -24 -6 -71 -11 -138 -17 -23 -2 -31 1
-28 10 3 7 1 13 -4 13 -18 0 -25 2 -44 12 -16 9 -18 7 -12 -7 5 -14 2 -16 -11
-10 -40 16 -72 23 -79 17 -4 -4 -4 -2 -1 4 8 14 -16 37 -27 27 -4 -4 -4 0 0
10 3 9 1 17 -5 17 -6 0 -8 6 -5 13 2 7 -6 19 -19 26 -17 9 -23 19 -20 35 4 16
-1 22 -17 23 -16 1 -19 -1 -11 -11 8 -9 7 -13 -4 -13 -17 0 -20 23 -5 32 12 7
-21 43 -35 38 -5 -3 -2 2 9 11 17 14 17 16 -19 53 -21 21 -41 37 -45 36 -5 -1
-7 5 -5 15 1 9 7 16 12 15 6 -1 8 9 5 22 -2 14 -8 25 -11 25 -8 0 -9 3 -12 58
-1 24 -6 31 -16 28 -8 -3 -11 -1 -8 5 4 5 1 17 -7 26 -9 12 -9 15 0 9 6 -4 12
-4 13 1 0 4 3 19 5 33 2 15 -3 35 -11 45 -13 17 -14 17 -9 2 4 -12 2 -16 -8
-12 -8 3 -15 12 -15 20 0 8 2 13 5 10 10 -10 41 16 39 35 -1 12 -5 16 -12 10
-12 -10 -31 9 -30 30 1 8 7 14 13 12 10 -2 10 3 2 17 -5 11 -15 23 -20 26 -6
4 -4 12 6 22 12 13 13 17 2 24 -11 7 -11 9 0 9 7 0 10 5 7 10 -3 6 -2 10 4 10
6 0 7 7 4 17 -5 12 -3 14 7 8 8 -5 11 -4 6 3 -3 6 -2 14 4 17 8 5 7 11 -1 21
-6 8 -9 17 -5 21 3 3 6 0 6 -7 0 -9 5 -7 14 5 7 11 13 32 12 47 -1 15 3 29 10
32 18 7 39 77 26 85 -15 9 -2 28 23 34 18 4 17 5 -3 6 -13 0 -20 5 -17 11 3 5
0 7 -8 4 -8 -3 -18 6 -26 22 -6 15 -15 24 -18 20 -3 -3 -12 -1 -19 5 -10 8
-12 6 -9 -10 3 -15 0 -18 -12 -14 -12 5 -14 3 -8 -8 5 -8 4 -11 0 -6 -16 14
-14 36 3 30 10 -4 13 -2 8 6 -12 18 -14 101 -3 101 5 0 4 7 -3 15 -7 8 -9 15
-4 16 20 1 46 8 50 12 8 7 42 1 57 -11z m1117 -47 c0 -2 -8 -9 -18 -14 -14 -8
-19 -6 -19 5 0 7 9 14 19 14 10 0 18 -2 18 -5z m-2492 -116 c10 -16 10 -19 1
-13 -9 5 -10 2 -6 -9 4 -10 2 -16 -6 -14 -20 4 -27 20 -14 36 9 12 9 13 0 7
-8 -4 -13 -1 -13 8 0 20 22 11 38 -15z m1992 -9 c0 -5 -12 -10 -27 -9 l-28 1
25 8 c14 4 26 8 28 9 1 1 2 -3 2 -9z m233 -33 c-3 -5 -10 -4 -15 1 -6 6 -7 16
-3 22 6 9 9 9 16 -1 4 -7 5 -17 2 -22z m-909 -165 c3 -5 -1 -9 -9 -9 -8 0 -12
4 -9 9 3 4 7 8 9 8 2 0 6 -4 9 -8z m-44 -212 c0 -5 -5 -10 -11 -10 -5 0 -7 5
-4 10 3 6 8 10 11 10 2 0 4 -4 4 -10z m3195 -20 c-3 -5 -2 -10 3 -10 5 0 9
-10 8 -22 -1 -26 -40 -62 -59 -54 -7 3 -3 7 11 11 15 5 22 15 22 32 0 13 -4
22 -9 19 -5 -3 -11 1 -14 9 -4 9 -1 12 7 9 8 -3 17 -1 21 5 3 6 8 11 11 11 3
0 2 -4 -1 -10z m-4685 -59 c81 -57 139 -137 123 -166 -5 -7 -22 -28 -38 -47
-33 -37 -41 -73 -27 -135 10 -43 -7 -100 -39 -133 -34 -35 -83 -163 -75 -196
5 -18 3 -24 -5 -18 -8 4 -9 3 -5 -5 4 -6 2 -19 -6 -28 -11 -14 -11 -16 1 -9 9
6 12 5 9 -5 -5 -16 39 -59 61 -59 13 0 13 -2 3 -9 -29 -18 44 -22 102 -6 21 6
27 5 22 -4 -4 -6 -2 -11 4 -11 6 0 8 -5 5 -10 -4 -6 -2 -16 4 -23 6 -7 6 -18
1 -26 -4 -8 -6 -20 -3 -28 3 -7 0 -13 -7 -13 -6 0 -9 -4 -5 -9 6 -10 -8 -25
-49 -55 -14 -10 -26 -25 -26 -32 0 -7 -11 -21 -25 -32 -26 -21 -34 -52 -13
-52 6 0 8 -3 5 -7 -4 -3 -2 -12 4 -20 6 -7 8 -13 4 -13 -4 0 8 -21 27 -48 26
-36 34 -56 32 -85 -2 -48 -30 -80 -64 -74 -36 6 -54 11 -60 18 -17 18 -80 60
-80 53 0 -5 -4 -4 -8 2 -13 18 -79 64 -85 59 -4 -3 -5 -2 -2 2 3 3 -4 12 -15
20 -41 29 -125 205 -135 284 -10 79 -5 185 10 209 3 5 1 11 -5 15 -6 4 -2 20
10 43 11 20 20 44 20 54 0 9 5 20 10 23 8 5 7 12 -2 23 -11 13 -11 14 1 7 11
-6 13 -4 8 8 -7 19 35 71 47 59 4 -4 7 -2 6 3 -1 6 -1 12 0 15 7 18 3 70 -5
70 -6 0 -6 3 0 8 15 11 35 60 35 86 0 13 9 43 19 67 11 24 22 56 25 71 2 15 8
33 13 40 8 14 10 19 12 42 1 19 73 96 89 96 7 0 10 4 7 10 -9 15 25 0 65 -29z
m4640 4 c0 -8 -7 -15 -15 -15 -13 0 -14 3 -3 15 16 18 18 18 18 0z m3490 -3
c0 -4 -15 -16 -32 -26 l-33 -17 30 25 c33 29 35 30 35 18z m-3450 -37 c-13
-14 -28 -25 -34 -25 -6 1 3 12 19 25 39 32 45 32 15 0z m25 -22 c3 -10 5 -18
4 -18 -1 0 3 -11 10 -25 11 -22 10 -23 -2 -7 -8 9 -20 17 -26 17 -7 0 -10 4
-6 9 3 5 1 12 -5 16 -11 7 -4 25 10 25 4 0 11 -8 15 -17z m-3204 -30 c12 -16
12 -17 -2 -6 -9 7 -20 9 -24 5 -5 -4 -5 -1 -1 6 9 16 11 15 27 -5z m2994 -3
c3 -5 1 -10 -4 -10 -6 0 -11 5 -11 10 0 6 2 10 4 10 3 0 8 -4 11 -10z m-75
-39 c-6 -12 -15 -21 -21 -21 -5 0 -2 11 8 24 21 28 29 27 13 -3z m-2896 -67
c3 -8 2 -12 -4 -9 -6 3 -10 10 -10 16 0 14 7 11 14 -7z m556 1 c14 -8 21 -14
15 -14 -5 0 -21 6 -35 14 -14 8 -20 14 -15 14 6 0 21 -6 35 -14z m5910 -4 c-5
-11 -10 -29 -10 -40 0 -30 -61 -106 -85 -106 -11 -1 -19 -7 -17 -13 2 -10 -3
-10 -17 -3 -10 6 -20 8 -22 6 -8 -7 -82 -8 -149 -2 -62 6 -203 19 -245 22 -11
1 -34 5 -50 9 -37 10 -71 16 -110 22 -16 2 -70 10 -120 17 l-90 13 200 8 c261
9 475 31 605 60 58 13 109 24 113 25 4 1 3 -8 -3 -18z m-6462 -32 c-2 -3 3
-14 11 -23 11 -13 12 -19 2 -29 -10 -9 -11 -8 -5 7 5 13 4 17 -3 13 -7 -4 -10
0 -9 10 2 10 -2 22 -8 26 -7 6 -7 7 2 5 8 -2 12 -6 10 -9z m3186 -34 c-4 -8
-8 -15 -10 -15 -2 0 -4 7 -4 15 0 8 4 15 10 15 5 0 7 -7 4 -15z m-2896 -819
c-7 -8 -15 -12 -17 -11 -5 6 10 25 20 25 5 0 4 -6 -3 -14z m-1981 -352 c99
-33 232 -112 216 -128 -4 -3 1 -6 10 -6 10 0 17 -7 17 -15 0 -8 -7 -15 -17
-15 -9 0 -13 -3 -10 -7 4 -3 1 -13 -5 -22 -10 -12 -8 -12 8 2 11 9 24 17 28
17 12 0 0 -25 -12 -26 -7 -1 -13 -3 -14 -4 -2 -1 -20 -4 -40 -5 -26 -2 -36 1
-31 9 4 6 -1 5 -10 -3 -9 -7 -17 -9 -17 -4 0 5 -11 10 -26 11 -14 1 -33 6 -42
11 -37 20 -91 77 -97 103 -4 16 -11 26 -15 23 -4 -2 -6 7 -4 20 1 14 -2 25 -7
25 -8 0 10 28 18 30 1 0 24 -7 50 -16z m2433 -285 c0 8 2 12 5 9 3 -3 -1 -17
-9 -32 -10 -21 -15 -23 -19 -11 -4 8 -2 15 3 15 5 0 7 8 4 18 -5 14 -4 15 5 2
9 -12 11 -13 11 -1z m-1784 -508 c-10 -61 -27 -76 -46 -42 -13 26 -13 67 1 94
l12 21 19 -24 c11 -14 17 -33 14 -49z m1954 -21 c-8 -5 -9 -10 -2 -14 6 -4 9
-13 6 -21 -9 -22 -24 -7 -20 18 3 12 5 26 5 30 1 5 6 5 12 1 8 -5 8 -9 -1 -14z
m-1709 -42 c8 -15 13 -71 13 -151 1 -169 9 -162 -161 -131 -26 5 -57 81 -74
184 -18 106 -14 109 173 118 30 2 40 -3 49 -20z m1499 -38 c0 -5 -5 -10 -11
-10 -5 0 -7 5 -4 10 3 6 8 10 11 10 2 0 4 -4 4 -10z m380 -481 c0 -17 -13 -39
-22 -39 -7 0 -6 5 1 13 7 9 7 17 0 24 -6 6 -5 10 6 10 8 0 15 -4 15 -8z m180
-289 c0 -5 -4 -10 -10 -10 -5 0 -10 5 -10 10 0 6 5 10 10 10 6 0 10 -4 10 -10z
m490 -462 c0 -7 -4 -19 -9 -26 -6 -11 -9 -9 -14 7 -2 11 -2 22 1 25 10 10 22
6 22 -6z m113 -87 c7 -7 7 -11 1 -11 -5 0 -15 5 -22 12 -7 7 -12 8 -12 2 0 -5
-12 -9 -27 -8 -38 2 -40 3 -26 12 17 11 73 6 86 -7z m92 -62 c1 -15 -4 -25
-10 -23 -14 6 -14 51 0 51 5 0 10 -13 10 -28z m-85 1 c0 -5 -4 -12 -10 -15 -5
-3 -10 0 -10 7 0 11 -2 10 -9 0 -7 -11 -9 -11 -13 0 -4 9 2 14 18 16 13 1 24
-2 24 -8z m5 -30 c-3 -5 -12 -10 -18 -10 -7 0 -6 4 3 10 19 12 23 12 15 0z
m3835 -193 c0 -2 -9 -14 -20 -27 -11 -13 -20 -18 -20 -12 0 6 5 14 10 17 6 4
8 11 5 16 -4 5 1 9 9 9 9 0 16 -2 16 -3z m-3100 -449 c-18 -19 -22 -20 -30 -8
-7 11 -4 17 8 22 34 14 43 8 22 -14z m386 -64 c1 -9 -1 -13 -4 -9 -4 4 -7 10
-7 13 0 4 -4 14 -9 22 -7 12 -6 13 4 3 8 -7 15 -20 16 -29z m-46 -64 c-12 -22
-21 -26 -17 -7 2 10 17 26 25 27 1 0 -2 -9 -8 -20z m717 -66 c-3 -3 -12 -4
-19 -1 -8 3 -5 6 6 6 11 1 17 -2 13 -5z m968 -24 c-3 -5 -12 -10 -18 -10 -7 0
-6 4 3 10 19 12 23 12 15 0z m-205 -1624 c0 -2 -8 -10 -17 -17 -16 -13 -17
-12 -4 4 13 16 21 21 21 13z"/>
<path d="M9768 8563 c12 -2 32 -2 45 0 12 2 2 4 -23 4 -25 0 -35 -2 -22 -4z"/>
<path d="M10090 8516 c0 -2 7 -9 15 -16 9 -7 15 -8 15 -2 0 5 -7 12 -15 16 -8
3 -15 4 -15 2z"/>
<path d="M9618 8463 c-14 -2 -32 -11 -40 -20 -12 -15 -10 -16 16 -9 28 7 82
38 61 35 -6 -1 -22 -4 -37 -6z"/>
<path d="M9765 8450 c11 -5 27 -9 35 -9 13 -1 13 0 0 9 -8 5 -24 9 -35 9 l-20
0 20 -9z"/>
<path d="M9540 8430 c-13 -8 -12 -10 3 -10 9 0 17 5 17 10 0 12 -1 12 -20 0z"/>
<path d="M9728 8423 c12 -2 32 -2 45 0 12 2 2 4 -23 4 -25 0 -35 -2 -22 -4z"/>
<path d="M9965 8330 c-3 -5 -1 -10 4 -10 6 0 11 5 11 10 0 6 -2 10 -4 10 -3 0
-8 -4 -11 -10z"/>
<path d="M9918 8323 c6 -2 18 -2 25 0 6 3 1 5 -13 5 -14 0 -19 -2 -12 -5z"/>
<path d="M9928 8213 c7 -3 16 -2 19 1 4 3 -2 6 -13 5 -11 0 -14 -3 -6 -6z"/>
<path d="M10098 8143 c6 -2 18 -2 25 0 6 3 1 5 -13 5 -14 0 -19 -2 -12 -5z"/>
<path d="M8066 7775 c7 -18 6 -18 -9 -6 -15 12 -17 11 -17 -3 0 -9 6 -16 13
-17 6 0 20 -2 30 -4 22 -4 22 1 -4 28 -19 20 -20 20 -13 2z"/>
<path d="M8123 7763 c-21 -7 -15 -32 7 -30 10 1 17 3 15 6 -3 2 0 9 5 16 10
12 -3 16 -27 8z"/>
<path d="M8090 7705 c-7 -9 -10 -18 -6 -22 3 -3 6 -1 6 5 0 7 5 12 11 12 5 0
7 -5 3 -12 -4 -7 -3 -8 4 -4 6 4 9 13 5 21 -7 19 -8 19 -23 0z"/>
<path d="M6225 7660 c-3 -6 1 -7 9 -4 18 7 21 14 7 14 -6 0 -13 -4 -16 -10z"/>
<path d="M8296 7297 c3 -10 9 -15 12 -12 3 3 0 11 -7 18 -10 9 -11 8 -5 -6z"/>
<path d="M8323 7282 c-9 -15 -8 -19 3 -19 8 0 14 9 14 19 0 10 -1 18 -3 18 -1
0 -7 -8 -14 -18z"/>
<path d="M8365 7270 c-3 -5 -1 -10 4 -10 6 0 11 5 11 10 0 6 -2 10 -4 10 -3 0
-8 -4 -11 -10z"/>
<path d="M8307 7229 c7 -7 15 -10 18 -7 3 3 -2 9 -12 12 -14 6 -15 5 -6 -5z"/>
<path d="M8515 6940 c3 -5 8 -10 11 -10 2 0 4 5 4 10 0 6 -5 10 -11 10 -5 0
-7 -4 -4 -10z"/>
<path d="M8543 6923 c-7 -2 -13 -11 -13 -19 0 -16 28 -18 50 -3 12 8 9 9 -9 4
-19 -6 -23 -4 -18 9 4 9 5 16 4 15 -1 0 -8 -3 -14 -6z"/>
<path d="M8649 6877 c7 -7 14 -8 21 -1 6 6 2 10 -12 11 -16 2 -18 -1 -9 -10z"/>
<path d="M8722 6860 c7 -11 17 -20 22 -20 5 0 1 9 -9 20 -10 11 -20 20 -22 20
-2 0 2 -9 9 -20z"/>
<path d="M8590 6839 c-13 -7 -13 -9 0 -10 8 -1 19 -1 24 0 4 1 14 -4 22 -10
18 -14 19 -2 1 14 -17 16 -30 18 -47 6z"/>
<path d="M8760 6840 c0 -14 18 -21 23 -10 3 6 4 5 3 -2 -2 -7 -14 -13 -29 -13
-32 -1 -39 -7 -32 -28 7 -16 21 -17 43 -3 7 4 25 5 39 2 15 -4 31 -2 41 6 12
10 14 10 8 1 -4 -9 -1 -14 11 -15 10 0 23 -2 30 -2 6 -1 15 -5 20 -10 4 -5 3
-6 -4 -2 -7 4 -13 3 -13 -3 0 -5 -8 -11 -17 -13 -13 -3 -10 -6 9 -10 15 -3 25
-1 22 3 -3 5 16 9 41 9 34 0 44 -3 39 -12 -6 -10 -4 -10 8 0 11 8 18 9 22 3 4
-7 15 -7 31 -1 13 5 34 7 47 4 28 -5 247 -7 268 -2 8 2 21 7 28 11 6 5 16 6
21 3 5 -3 15 2 22 12 7 9 9 14 5 10 -5 -4 -15 -3 -21 2 -7 6 -34 13 -60 16
-26 2 -51 7 -56 9 -4 3 -10 -3 -12 -12 -4 -16 -5 -16 -6 1 -1 14 -7 17 -26 14
-14 -3 -25 -1 -25 6 0 6 -5 4 -10 -4 -7 -11 -10 -11 -10 -2 0 9 -13 12 -43 11
-24 -2 -48 1 -54 4 -6 4 -14 1 -16 -5 -4 -10 -6 -10 -6 0 -1 8 -6 10 -13 5
-20 -12 -68 -11 -68 1 0 6 -5 4 -10 -4 -5 -8 -10 -10 -10 -4 0 7 -7 15 -16 18
-10 4 -13 2 -8 -7 4 -6 -2 -4 -13 6 -21 18 -22 18 -32 0 -10 -17 -10 -17 -11
2 0 11 -4 16 -8 10 -10 -14 -56 -39 -48 -26 4 6 -3 13 -16 15 -51 12 -88 14
-88 6z m-6 -46 c3 -8 2 -12 -4 -9 -6 3 -10 10 -10 16 0 14 7 11 14 -7z m613
-36 c-3 -8 -6 -5 -6 6 -1 11 2 17 5 13 3 -3 4 -12 1 -19z m20 0 c-3 -8 -6 -5
-6 6 -1 11 2 17 5 13 3 -3 4 -12 1 -19z"/>
<path d="M10248 6568 c-2 -7 -4 -35 -4 -62 1 -35 5 -51 16 -54 8 -3 12 -1 8 3
-4 4 0 13 8 20 15 11 15 14 -1 38 -9 14 -14 30 -12 35 3 4 2 14 -2 21 -7 10
-9 10 -13 -1z"/>
<path d="M5950 7130 c0 -5 5 -10 11 -10 5 0 7 5 4 10 -3 6 -8 10 -11 10 -2 0
-4 -4 -4 -10z"/>
<path d="M5345 6973 c3 -8 5 -17 5 -19 0 -2 5 -4 10 -4 6 0 10 8 10 18 0 10
-7 19 -15 19 -10 0 -14 -6 -10 -14z"/>
<path d="M5310 6966 c0 -2 7 -7 16 -10 8 -3 12 -2 9 4 -6 10 -25 14 -25 6z"/>
<path d="M4630 6784 c0 -8 5 -12 10 -9 6 4 8 11 5 16 -9 14 -15 11 -15 -7z"/>
<path d="M4748 6773 c7 -3 16 -2 19 1 4 3 -2 6 -13 5 -11 0 -14 -3 -6 -6z"/>
<path d="M5479 6698 c-6 -27 -4 -34 12 -35 10 -1 21 2 24 8 4 5 -2 6 -11 2
-11 -4 -15 -3 -10 5 3 6 2 13 -4 17 -5 3 -10 5 -11 3z"/>
<path d="M5286 6622 c-3 -5 1 -9 9 -9 8 0 12 4 9 9 -3 4 -7 8 -9 8 -2 0 -6 -4
-9 -8z"/>
<path d="M3737 6203 c-2 -5 -1 -17 3 -27 6 -19 7 -19 12 2 6 21 -6 40 -15 25z"/>
<path d="M3970 5807 c0 -11 -5 -14 -16 -10 -11 4 -15 2 -13 -6 3 -7 8 -12 12
-12 4 1 13 1 21 1 8 0 13 7 12 15 -3 21 -16 31 -16 12z"/>
<path d="M2211 5337 c-13 -21 -12 -21 5 -5 10 10 16 20 13 22 -3 3 -11 -5 -18
-17z"/>
<path d="M6528 11223 c7 -3 16 -2 19 1 4 3 -2 6 -13 5 -11 0 -14 -3 -6 -6z"/>
<path d="M10196 9551 c-4 -5 -2 -12 3 -15 5 -4 12 -2 15 3 4 5 2 12 -3 15 -5
4 -12 2 -15 -3z"/>
<path d="M3852 9309 c-17 -26 -10 -34 17 -20 12 7 18 17 15 26 -8 20 -17 19
-32 -6z"/>
<path d="M3790 9271 c0 -6 5 -13 10 -16 6 -3 10 1 10 9 0 9 -4 16 -10 16 -5 0
-10 -4 -10 -9z"/>
<path d="M3835 9221 c-3 -5 -1 -12 5 -16 5 -3 10 1 10 9 0 18 -6 21 -15 7z"/>
<path d="M3840 9001 c0 -6 4 -12 8 -15 5 -3 9 1 9 9 0 8 -4 15 -9 15 -4 0 -8
-4 -8 -9z"/>
<path d="M3867 8855 c-18 -13 -24 -31 -7 -20 6 3 10 1 10 -4 0 -6 6 -11 14
-11 9 0 12 -8 8 -25 -6 -31 -32 -33 -32 -2 0 18 -2 19 -10 7 -15 -23 -12 -27
19 -38 27 -10 29 -9 34 24 3 19 0 45 -7 58 -10 20 -15 22 -29 11z"/>
<path d="M9710 8863 c-33 -5 -70 -24 -70 -35 0 -5 18 -7 40 -4 30 3 53 -3 97
-25 32 -16 65 -38 73 -48 19 -24 90 -62 102 -55 4 3 8 -2 8 -10 0 -9 5 -16 11
-16 5 0 7 5 3 11 -3 6 -1 15 7 20 10 6 7 10 -12 17 -14 6 -37 28 -52 50 -33
51 -87 92 -118 91 -13 0 -33 1 -44 4 -11 3 -31 3 -45 0z m173 -90 c39 -30 48
-46 20 -36 -27 10 -86 63 -70 63 8 0 30 -12 50 -27z"/>
<path d="M9600 8830 c0 -5 7 -10 16 -10 8 0 12 5 9 10 -3 6 -10 10 -16 10 -5
0 -9 -4 -9 -10z"/>
<path d="M9680 8800 c-34 -19 -34 -19 -9 -20 15 0 32 7 39 15 20 24 9 25 -30
5z"/>
<path d="M9736 8780 c-11 -3 -15 -9 -10 -13 10 -6 42 9 34 16 -3 3 -14 1 -24
-3z"/>
<path d="M9255 8690 c-14 -7 -9 -8 18 -4 22 4 43 2 51 -5 8 -7 17 -8 20 -3 11
19 -54 27 -89 12z"/>
<path d="M9468 8693 c12 -2 30 -2 40 0 9 3 -1 5 -23 4 -22 0 -30 -2 -17 -4z"/>
<path d="M3870 8666 c0 -9 5 -16 10 -16 6 0 10 4 10 9 0 6 -4 13 -10 16 -5 3
-10 -1 -10 -9z"/>
<path d="M4403 8639 c-13 -5 -23 -11 -23 -13 0 -3 7 -2 17 1 11 4 14 3 9 -5
-10 -17 9 -15 23 2 15 18 2 26 -26 15z"/>
<path d="M4468 8643 c7 -3 16 -2 19 1 4 3 -2 6 -13 5 -11 0 -14 -3 -6 -6z"/>
<path d="M4257 8563 c-20 -16 -40 -39 -43 -53 -4 -14 -12 -32 -17 -40 -6 -8 3
-2 21 14 18 17 32 35 32 40 0 6 14 23 32 38 43 36 22 36 -25 1z"/>
<path d="M8685 8575 c-25 -12 -26 -14 -5 -9 28 7 60 23 45 23 -5 0 -23 -6 -40
-14z"/>
<path d="M4984 8549 c-6 -11 19 -22 40 -17 11 2 9 6 -9 15 -15 6 -27 7 -31 2z"/>
<path d="M8565 8540 c-16 -11 -26 -20 -22 -20 11 0 67 29 67 35 0 10 -16 4
-45 -15z"/>
<path d="M5275 8530 c-3 -5 -1 -10 4 -10 6 0 11 5 11 10 0 6 -2 10 -4 10 -3 0
-8 -4 -11 -10z"/>
<path d="M5050 8520 c0 -5 16 -9 35 -8 19 1 32 5 29 10 -7 11 -64 10 -64 -2z"/>
<path d="M5440 8516 c0 -2 11 -6 25 -8 13 -3 22 -1 19 3 -5 9 -44 13 -44 5z"/>
<path d="M5545 8511 c3 -5 -3 -12 -12 -14 -11 -3 -8 -5 9 -6 20 -1 26 3 22 14
-4 8 -10 15 -16 15 -5 0 -7 -4 -3 -9z"/>
<path d="M4174 8478 l-19 -23 23 19 c21 18 27 26 19 26 -2 0 -12 -10 -23 -22z"/>
<path d="M4714 8485 c11 -8 22 -12 25 -9 6 6 -19 24 -34 24 -5 -1 -1 -7 9 -15z"/>
<path d="M4638 8483 c7 -3 16 -2 19 1 4 3 -2 6 -13 5 -11 0 -14 -3 -6 -6z"/>
<path d="M3940 8465 c0 -8 4 -15 10 -15 5 0 7 7 4 15 -4 8 -8 15 -10 15 -2 0
-4 -7 -4 -15z"/>
<path d="M4213 8455 c-11 -8 -23 -12 -26 -9 -3 3 -8 0 -13 -7 -5 -8 -3 -10 6
-4 10 6 12 4 7 -9 -7 -17 0 -14 61 30 2 1 -1 5 -6 8 -5 3 -18 -1 -29 -9z"/>
<path d="M8325 8460 c-8 -13 5 -13 25 0 13 8 13 10 -2 10 -9 0 -20 -4 -23 -10z"/>
<path d="M5660 8435 c19 -7 46 -14 60 -14 22 0 23 1 5 8 -11 5 -38 11 -60 14
l-40 6 35 -14z"/>
<path d="M6420 8255 c-7 -8 -11 -15 -9 -16 34 -7 36 -6 32 12 -6 23 -7 23 -23
4z"/>
<path d="M6605 8200 c-3 -5 1 -10 10 -10 9 0 13 5 10 10 -3 6 -8 10 -10 10 -2
0 -7 -4 -10 -10z"/>
<path d="M7858 8153 c7 -3 16 -2 19 1 4 3 -2 6 -13 5 -11 0 -14 -3 -6 -6z"/>
<path d="M6780 8120 c0 -5 5 -10 10 -10 6 0 10 5 10 10 0 6 -4 10 -10 10 -5 0
-10 -4 -10 -10z"/>
<path d="M10762 7063 c-17 -21 -46 -59 -65 -84 l-35 -46 23 -29 c21 -26 24
-27 53 -15 22 9 36 27 55 69 34 78 43 122 26 133 -21 13 -25 12 -57 -28z"/>
<path d="M10679 6003 c-1 -5 -1 -12 0 -17 1 -4 -3 -14 -8 -20 -8 -9 -6 -13 4
-13 10 0 15 10 15 29 0 25 -8 40 -11 21z"/>
<path d="M6902 5930 c0 -14 2 -19 5 -12 2 6 2 18 0 25 -3 6 -5 1 -5 -13z"/>
<path d="M6737 5833 c-4 -3 -7 -14 -7 -24 0 -10 -5 -21 -12 -25 -7 -4 -8 -3
-4 4 4 7 2 12 -3 12 -15 0 -14 -13 2 -29 10 -11 9 -13 -1 -7 -9 6 -11 -1 -8
-28 3 -20 0 -36 -5 -36 -6 0 -8 -4 -4 -9 3 -5 0 -13 -6 -17 -8 -4 -9 -3 -5 4
4 7 3 12 -3 12 -9 0 -24 -18 -27 -30 -4 -27 -41 -78 -64 -88 -47 -21 -118 -5
-149 32 -8 9 -17 14 -21 11 -4 -2 -6 7 -4 20 3 28 -29 54 -41 34 -4 -6 -13 -8
-21 -5 -9 3 -11 0 -7 -11 4 -9 2 -14 -3 -11 -5 4 -16 -10 -25 -30 -42 -97 -89
-186 -108 -209 -6 -6 -13 -47 -17 -91 -5 -69 -3 -83 16 -118 12 -21 26 -44 31
-50 5 -6 7 -13 4 -16 -3 -2 1 -5 7 -6 7 0 40 -8 73 -16 33 -9 73 -18 89 -21
16 -3 33 -8 38 -12 5 -3 28 -6 51 -8 23 -1 55 -8 70 -14 16 -6 34 -11 40 -11
20 -1 130 -39 152 -54 12 -8 37 -16 56 -19 20 -2 47 -12 62 -22 26 -17 53 -13
41 7 -5 7 2 9 22 4 16 -4 31 -11 34 -16 10 -16 61 -30 78 -21 9 4 23 6 31 3 9
-3 11 0 6 9 -5 8 0 6 12 -4 11 -9 22 -15 25 -12 5 6 133 -31 160 -46 23 -12
98 -12 98 1 0 6 18 10 41 10 25 0 56 9 83 25 24 14 46 22 51 17 4 -4 5 -2 2 5
-4 6 5 15 23 22 17 5 30 14 30 20 0 14 68 53 80 46 6 -3 7 0 4 10 -5 11 -2 14
10 9 12 -5 19 0 23 14 3 14 10 19 21 15 12 -5 14 -1 9 16 -4 17 -2 21 9 17 8
-3 12 -1 9 4 -9 14 29 47 64 55 17 4 29 11 26 16 -4 5 0 6 7 4 8 -3 24 4 36
15 12 11 22 16 22 9 0 -6 14 -3 35 10 41 24 61 19 69 -15 l7 -25 24 29 c13 16
31 29 40 29 10 0 12 -4 6 -10 -6 -6 -4 -18 5 -32 16 -24 27 -26 59 -8 11 6 45
16 75 22 79 17 129 53 130 94 0 23 36 93 60 117 31 31 50 74 39 91 -6 10 -9
10 -9 2 0 -7 -7 -13 -16 -13 -9 0 -12 5 -8 11 4 7 1 10 -7 7 -8 -3 -22 7 -31
21 -10 14 -18 20 -18 12 0 -10 -4 -11 -12 -3 -7 5 -26 12 -43 15 -16 3 -48 13
-70 23 -23 9 -59 16 -83 15 -34 -2 -49 3 -68 20 -13 12 -24 17 -24 10 0 -8 -5
-9 -16 -3 -17 10 -64 4 -64 -8 0 -14 -52 -31 -65 -20 -16 13 -28 0 -14 -16 8
-9 5 -15 -9 -23 -11 -6 -22 -8 -25 -5 -3 4 -21 -3 -39 -14 -20 -12 -46 -19
-65 -17 -18 1 -33 -2 -33 -7 0 -5 -6 -6 -12 -2 -7 4 -9 3 -5 -1 10 -12 37 -15
37 -5 0 10 26 7 37 -4 4 -4 3 -7 -2 -6 -23 5 -35 -1 -35 -17 0 -14 -2 -15 -9
-4 -6 9 -10 10 -12 2 -3 -7 -14 -3 -29 11 -14 13 -28 22 -33 20 -5 -1 -24 7
-43 18 -25 16 -43 20 -71 15 -20 -3 -39 -7 -41 -10 -2 -2 -11 3 -19 11 -8 8
-23 12 -32 9 -10 -3 -43 4 -74 14 -31 11 -57 17 -57 13 -1 -4 -14 8 -30 27
-16 19 -27 37 -25 41 2 4 -2 7 -10 7 -8 0 -12 -5 -8 -11 3 -6 -10 5 -29 24
-19 19 -33 38 -31 42 2 4 -2 6 -9 3 -7 -2 -29 9 -48 26 -19 17 -29 27 -21 23
9 -5 12 -3 7 4 -4 7 -17 12 -30 12 -12 0 -28 6 -35 13 -8 6 -11 7 -8 1 3 -6 0
-11 -8 -11 -8 0 -12 4 -9 8 7 13 -13 20 -62 22 -41 2 -48 -1 -60 -24 -7 -15
-10 -30 -6 -34 4 -5 1 -5 -6 -1 -7 5 -11 15 -8 23 3 8 2 11 -3 8 -5 -3 -12 -1
-16 5 -4 7 -12 7 -26 0 -14 -8 -19 -7 -20 2 0 7 -4 4 -9 -7 -7 -17 -9 -17 -9
-2 -1 10 -9 17 -20 17 -11 0 -23 5 -26 10 -3 6 -11 10 -16 10 -6 0 -7 -5 -3
-12 4 -7 3 -8 -4 -4 -6 4 -8 14 -5 24 6 14 4 15 -9 4 -13 -10 -18 -10 -24 -1
-5 8 -3 9 6 4 9 -5 11 -4 6 3 -8 14 -10 14 -19 5z m180 -95 c-3 -8 -6 -5 -6 6
-1 11 2 17 5 13 3 -3 4 -12 1 -19z"/>
<path d="M10630 5639 c0 -5 5 -7 10 -4 6 3 10 8 10 11 0 2 -4 4 -10 4 -5 0
-10 -5 -10 -11z"/>
<path d="M4226 5185 c8 -37 10 -39 17 -21 3 8 -1 22 -9 33 -13 17 -14 16 -8
-12z"/>
<path d="M4120 5181 c0 -6 4 -13 10 -16 6 -3 7 1 4 9 -7 18 -14 21 -14 7z"/>
<path d="M4530 4514 c0 -17 17 -36 24 -26 3 5 -1 15 -9 22 -8 7 -15 9 -15 4z"/>
<path d="M4581 4454 c0 -11 3 -14 6 -6 3 7 2 16 -1 19 -3 4 -6 -2 -5 -13z"/>
<path d="M6091 4385 c4 -26 -2 -46 -13 -39 -6 4 -8 3 -5 -3 9 -15 53 -8 49 8
-4 16 -34 49 -31 34z"/>
<path d="M4614 4372 c3 -5 0 -13 -6 -15 -8 -3 -6 -6 5 -6 19 -1 23 14 5 25 -6
4 -8 3 -4 -4z"/>
<path d="M8156 4368 c3 -5 10 -6 15 -3 13 9 11 12 -6 12 -8 0 -12 -4 -9 -9z"/>
<path d="M8186 4365 c-9 -24 -8 -24 15 -20 12 3 18 1 15 -3 -4 -4 -11 -7 -15
-7 -15 0 -42 -35 -39 -52 2 -11 -5 -19 -17 -21 -26 -6 -37 -23 -23 -39 6 -7 9
-13 7 -14 -77 -10 -128 -1 -114 20 2 4 -2 8 -10 8 -11 0 -12 -4 -4 -13 7 -8 7
-14 -1 -19 -5 -3 -10 -2 -10 4 0 6 -11 4 -26 -4 -14 -7 -36 -12 -50 -10 -13 1
-21 -2 -18 -6 3 -5 -2 -9 -10 -9 -24 0 -30 4 -32 18 -1 6 2 10 7 6 5 -3 9 0 9
5 0 6 6 11 14 11 12 0 13 10 7 54 0 6 -8 1 -17 -10 -8 -10 -13 -13 -9 -6 8 15
-7 16 -22 1 -7 -7 -14 -1 -22 23 -9 26 -14 30 -21 18 -5 -8 -5 -19 -1 -25 11
-16 8 -28 -17 -60 -13 -17 -21 -23 -17 -15 4 10 2 9 -8 -2 -21 -26 -40 -23
-32 5 5 17 4 19 -4 7 -10 -14 -15 -7 -12 13 1 5 -3 6 -9 2 -6 -3 -7 -11 -4
-17 4 -7 2 -8 -5 -4 -6 4 -18 3 -25 -3 -9 -8 -13 -7 -13 4 0 8 4 15 9 15 4 0
8 7 8 16 0 8 4 13 9 9 5 -3 12 -1 16 4 3 6 12 8 20 4 9 -3 22 0 29 6 10 8 16
9 21 1 8 -13 25 -13 25 1 0 5 -4 7 -10 4 -5 -3 -10 0 -10 8 0 17 -22 27 -53
26 -12 0 -16 -3 -9 -6 24 -9 13 -30 -13 -25 -20 3 -24 9 -19 25 5 17 3 19 -12
12 -11 -4 -27 -8 -37 -9 -9 0 -29 -10 -45 -22 -22 -19 -24 -22 -7 -19 11 2 32
4 48 4 15 1 26 4 26 9 -3 19 2 26 10 13 13 -20 2 -41 -20 -41 -12 0 -16 -5
-13 -14 3 -8 -1 -18 -8 -22 -18 -12 -39 -14 -33 -4 9 15 -35 22 -51 9 -12 -10
-15 -10 -12 2 2 8 -3 13 -10 11 -8 -1 -11 2 -7 8 3 6 11 8 16 5 19 -13 8 6
-22 34 -17 17 -28 34 -25 40 9 14 -13 24 -28 12 -8 -7 -16 -7 -23 0 -18 18
-63 21 -69 4 -7 -18 -47 -20 -75 -2 -17 10 -22 9 -33 -5 -11 -15 -21 -17 -59
-9 -26 4 -49 6 -52 3 -3 -3 -12 3 -20 14 -13 16 -14 16 -9 2 3 -10 1 -18 -5
-18 -25 0 -9 -25 17 -26 31 -2 84 -13 91 -20 5 -4 -24 -7 -51 -5 -9 1 -19 -3
-23 -9 -3 -5 -1 -10 4 -10 6 0 11 -8 11 -19 0 -10 11 -26 25 -35 16 -11 22
-22 18 -33 -5 -12 -3 -14 7 -8 9 5 11 4 6 -3 -5 -9 -13 -9 -28 -1 -11 6 -29 9
-39 6 -10 -3 -22 0 -26 5 -4 7 -1 8 8 4 10 -6 10 -4 -1 6 -8 7 -16 19 -18 27
-3 12 0 12 13 1 8 -7 18 -10 22 -6 3 3 0 6 -8 6 -10 0 -11 2 -2 8 8 5 2 12
-18 19 l-31 12 6 -33 c5 -25 3 -35 -8 -39 -9 -4 -18 -2 -21 3 -4 6 -17 7 -30
4 -13 -3 -37 1 -54 9 -17 8 -40 13 -51 10 -11 -3 -20 0 -20 6 0 6 -7 8 -17 4
-11 -4 -14 -3 -9 5 9 16 -7 15 -22 0 -7 -7 -12 -8 -12 -4 0 5 -7 3 -15 -4 -12
-10 -15 -10 -15 4 0 9 -8 16 -19 16 -11 0 -23 5 -26 10 -4 6 -10 8 -15 5 -4
-3 -13 1 -19 9 -9 10 -8 15 3 19 8 3 16 3 18 -1 5 -11 91 -38 111 -34 9 2 17
10 17 18 0 17 45 17 69 -1 11 -7 13 -7 8 1 -4 7 0 15 9 18 13 5 14 9 4 21 -15
18 1 20 19 3 11 -10 13 -10 7 0 -4 6 -2 12 3 12 6 0 11 -7 11 -15 0 -8 5 -15
11 -15 6 0 9 7 6 14 -4 10 -1 13 8 9 8 -3 12 -9 9 -14 -3 -5 3 -9 12 -9 10 0
14 3 11 7 -4 3 -2 12 4 19 6 8 8 21 4 31 -5 10 -7 22 -6 26 1 5 -7 7 -16 5
-10 -1 -24 1 -30 5 -9 5 -13 3 -13 -7 0 -19 -5 -20 -31 -6 -19 11 -20 9 -23
-22 -2 -26 -36 -38 -36 -13 0 13 -4 14 -20 5 -14 -7 -19 -17 -15 -29 6 -20
-18 -46 -35 -36 -5 3 -10 14 -10 24 0 23 -31 32 -71 21 -18 -5 -40 -5 -55 0
-14 6 -24 6 -24 0 0 -5 -21 -12 -47 -15 -27 -4 -58 -11 -70 -17 -17 -8 -30 -8
-47 0 -21 9 -24 9 -19 -4 4 -11 -3 -13 -36 -10 -26 2 -44 -1 -52 -10 -18 -22
-56 -16 -84 13 -17 19 -25 23 -25 13 0 -12 -2 -13 -9 -1 -13 20 -30 5 -25 -22
2 -12 2 -17 -2 -10 -3 7 -12 9 -20 6 -8 -3 -21 0 -29 7 -10 9 -15 9 -15 1 0
-16 -56 -13 -70 4 -7 8 -20 15 -30 15 -10 0 -24 8 -31 17 -12 14 -12 16 0 8
10 -6 12 -4 7 4 -5 7 -11 10 -14 7 -3 -3 -14 2 -24 11 -18 16 -19 16 -25 -5
-3 -12 -10 -22 -15 -22 -5 0 -6 -5 -2 -11 4 -8 0 -8 -15 0 -11 7 -21 14 -21
17 0 3 6 2 13 -2 9 -5 9 -4 1 6 -7 6 -28 12 -48 12 -20 0 -36 5 -37 12 0 6 -4
2 -8 -9 -5 -11 -22 -26 -37 -34 -54 -25 -58 -27 -62 -39 -2 -7 3 -12 11 -12 9
0 17 6 19 12 3 7 5 -3 6 -23 1 -34 1 -35 -33 -31 -28 3 -35 1 -35 -13 0 -14
-3 -15 -15 -5 -16 13 -35 6 -35 -15 0 -15 -25 -28 -60 -29 -26 -1 -35 -29 -17
-53 12 -17 -20 -30 -36 -14 -6 6 -20 10 -31 10 -16 -1 -17 -2 -4 -6 9 -2 19
-11 22 -20 4 -11 2 -14 -9 -9 -18 7 -20 -15 -2 -33 10 -11 9 -12 -1 -6 -10 5
-13 -1 -10 -26 2 -23 9 -33 22 -35 10 -1 22 -8 26 -15 5 -8 10 -5 15 10 6 19
8 19 21 6 9 -8 20 -12 26 -9 6 4 13 2 17 -4 3 -5 27 -12 54 -15 28 -3 45 -2
42 4 -4 5 3 9 15 9 14 0 19 -4 14 -12 -6 -9 -3 -9 9 1 9 7 40 14 69 15 58 2
78 -1 78 -15 0 -4 -7 -6 -15 -3 -10 4 -15 0 -15 -12 0 -9 3 -14 7 -11 3 4 12
-1 19 -11 7 -9 14 -12 14 -7 0 14 38 17 45 4 4 -5 2 -9 -2 -9 -5 0 -9 -8 -10
-18 -1 -10 5 -19 12 -19 8 0 12 5 8 10 -3 5 3 5 13 -1 26 -14 66 -18 82 -9 7
5 14 2 18 -7 3 -9 13 -16 21 -16 11 0 13 -7 8 -28 -4 -22 -2 -29 10 -29 9 0
12 4 7 9 -11 11 -3 60 9 52 5 -3 9 0 9 5 0 6 -6 11 -12 11 -9 0 -8 3 2 10 19
12 36 -3 43 -38 5 -25 4 -25 -9 -7 -10 14 -17 16 -25 8 -12 -12 -4 -48 8 -40
5 3 8 -6 8 -19 0 -13 -6 -24 -12 -24 -17 0 -16 -25 1 -39 10 -8 16 -9 21 -1 3
5 -2 10 -12 10 -15 1 -14 3 6 14 29 16 67 15 63 -2 -1 -7 2 -12 8 -12 5 0 7
-6 5 -12 -9 -24 10 -41 33 -29 15 8 21 8 24 0 3 -8 9 -6 20 4 8 9 18 14 21 11
2 -3 9 9 15 25 6 17 13 31 16 31 3 0 3 -6 0 -14 -6 -17 46 -75 62 -69 18 6 74
-49 74 -74 0 -37 18 -35 30 2 11 33 13 35 25 18 8 -11 10 -24 5 -33 -11 -20
25 -47 36 -28 5 7 2 8 -7 3 -8 -5 -2 4 13 20 22 21 31 25 41 16 8 -6 17 -8 20
-4 4 3 15 -5 26 -18 l20 -24 2 25 c1 14 1 28 0 32 0 3 14 6 32 6 51 0 57 1 57
15 0 7 -9 13 -20 13 -11 0 -20 -4 -20 -8 0 -4 -11 -8 -25 -8 -16 0 -25 6 -25
16 0 8 -5 12 -10 9 -6 -4 -18 -1 -27 7 -14 12 -13 14 13 18 20 4 29 11 29 24
0 27 25 33 42 10 10 -14 16 -15 25 -6 9 9 9 12 -1 12 -18 0 -8 23 11 26 11 1
15 -4 13 -17 -3 -15 2 -19 26 -19 22 0 28 -4 23 -12 -5 -9 -2 -8 10 1 9 8 15
20 12 28 -4 9 -1 11 6 7 7 -5 9 2 5 22 -3 19 0 35 11 48 10 11 11 16 4 12 -7
-4 -18 -3 -25 3 -8 6 -18 6 -27 1 -19 -12 -33 -13 -26 -1 8 13 -21 34 -38 28
-8 -3 -20 0 -26 7 -6 8 -22 16 -36 19 -19 3 -28 -1 -34 -17 l-9 -21 0 22 c-1
25 -17 39 -24 21 -3 -8 -9 -2 -15 14 -12 29 -32 46 -32 27 0 -7 -6 -4 -14 7
-9 12 -11 23 -5 30 6 8 1 17 -15 28 -14 9 -27 12 -31 7 -7 -13 -30 -8 -49 11
-15 16 -15 18 6 29 20 11 21 10 11 -3 -22 -26 -4 -27 48 -2 88 43 260 68 464
68 99 0 216 -3 260 -8 101 -11 204 -8 280 7 83 17 251 27 430 27 104 -1 115
-2 115 -12 0 -5 9 -4 20 2 36 19 96 1 86 -27 -4 -11 -2 -13 9 -9 8 3 14 2 13
-2 -1 -4 2 -15 6 -24 5 -10 5 -26 2 -35 -6 -15 -10 -14 -29 10 -20 24 -23 25
-37 10 -13 -15 -12 -16 4 -10 15 6 16 5 8 -6 -6 -7 -9 -22 -8 -32 2 -11 1 -24
-3 -30 -12 -21 -10 -45 4 -45 8 0 15 7 15 15 0 8 -6 15 -12 15 -10 0 -9 3 1 9
7 5 11 13 7 19 -10 17 13 25 30 11 12 -10 15 -10 12 2 -2 8 4 13 15 13 9 -1
17 3 18 10 0 6 2 19 4 30 2 11 -12 34 -36 59 -21 22 -37 42 -35 45 8 7 51 -20
90 -57 28 -26 35 -30 27 -13 -14 26 0 30 23 6 9 -8 16 -12 16 -8 0 5 5 3 10
-2 6 -6 28 -8 53 -5 55 9 77 3 77 -17 0 -15 2 -15 10 -2 7 11 10 11 10 2 0 -7
4 -11 9 -8 5 3 7 16 4 27 -5 16 -2 20 8 17 8 -3 13 -10 12 -16 -2 -6 4 -9 12
-5 12 4 13 9 4 19 -12 15 2 19 45 15 10 0 25 4 32 10 8 6 14 8 14 4 0 -3 15 3
33 14 19 11 37 18 40 14 4 -3 26 -7 50 -8 23 -1 55 -5 70 -9 20 -6 27 -5 25 4
-2 7 6 14 16 16 10 1 22 6 25 11 10 14 55 30 74 27 9 -1 17 4 17 11 0 8 8 19
18 24 12 7 13 10 3 11 -7 0 -25 12 -38 26 -20 22 -26 24 -40 12 -9 -7 -14 -8
-10 -2 8 13 -38 28 -54 19 -5 -4 -9 -3 -8 2 4 23 -5 29 -46 27 -25 -1 -45 2
-45 7 0 5 -7 9 -16 9 -8 0 -12 5 -9 10 4 6 -11 10 -39 10 -38 0 -44 -3 -39
-17 5 -13 2 -15 -11 -10 -10 4 -20 7 -22 7 -3 0 -3 4 0 8 3 5 -5 8 -17 7 -12
-1 -35 6 -51 16 -21 13 -35 15 -53 8 -16 -6 -37 -4 -66 7 -41 14 -60 19 -112
28 -13 3 -29 7 -35 11 -6 3 -7 0 -4 -9 6 -15 -6 -20 -43 -19 -7 1 -13 -4 -13
-10 0 -8 -4 -7 -12 1 -8 8 -8 15 2 27 12 14 12 18 0 25 -7 4 -19 6 -27 3 -7
-3 -13 0 -13 5 0 7 -10 8 -30 2 -17 -5 -33 -9 -37 -10 -3 -1 -9 4 -13 10 -5 8
-9 7 -14 -5z m79 -35 c3 -5 1 -10 -4 -10 -6 0 -11 5 -11 10 0 6 2 10 4 10 3 0
8 -4 11 -10z m51 -40 c8 0 14 -6 11 -12 -5 -15 -45 -12 -72 4 -8 4 -41 4 -64
-1 -2 -1 2 -8 9 -16 9 -11 9 -15 1 -15 -7 0 -9 -5 -5 -12 4 -7 3 -8 -4 -4 -7
4 -12 3 -12 -2 0 -6 -6 -12 -14 -15 -9 -4 -13 0 -11 11 2 9 4 21 4 25 1 5 5 6
10 3 5 -4 12 7 16 24 7 32 24 37 69 20 23 -8 26 -7 27 13 l0 22 9 -22 c5 -13
17 -23 26 -23z m-1246 15 c0 -8 -7 -15 -15 -15 -16 0 -20 12 -8 23 11 12 23 8
23 -8z m-1192 -60 c-3 -3 -9 2 -12 12 -6 14 -5 15 5 6 7 -7 10 -15 7 -18z
m1381 -9 c0 -7 -2 -6 -6 2 -2 6 -11 12 -19 12 -9 0 -12 5 -9 10 8 13 35 -6 34
-24z m986 14 c-3 -5 -10 -10 -16 -10 -5 0 -9 5 -9 10 0 6 7 10 16 10 8 0 12
-4 9 -10z m225 0 c25 -15 -2 -31 -40 -24 -30 7 -32 8 -15 21 22 15 34 16 55 3z
m-125 -10 c3 -5 -1 -10 -10 -10 -9 0 -13 5 -10 10 3 6 8 10 10 10 2 0 7 -4 10
-10z m-998 -59 c0 -10 -6 -17 -12 -14 -16 5 -15 33 1 33 7 0 12 -9 11 -19z
m1723 -34 c0 -8 -3 -17 -6 -20 -10 -9 -46 12 -39 24 9 14 45 11 45 -4z m-1483
-93 c-3 -3 -12 -4 -19 -1 -8 3 -5 6 6 6 11 1 17 -2 13 -5z m-1441 -132 c-17
-16 -18 -16 -5 5 7 12 15 20 18 17 3 -2 -3 -12 -13 -22z m167 -21 c-13 -11
-27 -31 -33 -45 -11 -29 -30 -35 -30 -10 0 20 54 74 72 74 7 -1 3 -9 -9 -19z
m6 -43 c-12 -22 -20 -58 -12 -58 2 0 8 10 13 23 l9 22 0 -22 c1 -13 -1 -23 -3
-23 -2 0 -12 -3 -21 -6 -13 -5 -15 0 -13 32 1 22 9 44 18 51 21 16 24 9 9 -19z
m141 25 c-8 -3 -21 -10 -28 -16 -9 -7 -11 -6 -6 7 3 9 16 16 28 15 14 0 16 -2
6 -6z m-260 -13 c0 -5 -5 -10 -11 -10 -5 0 -7 5 -4 10 3 6 8 10 11 10 2 0 4
-4 4 -10z m280 -33 c0 7 7 10 15 7 26 -10 16 -20 -17 -18 -50 3 -55 5 -33 13
12 5 23 4 27 -3 6 -8 8 -7 8 1z m-210 -37 c0 -5 -5 -10 -11 -10 -5 0 -7 5 -4
10 3 6 8 10 11 10 2 0 4 -4 4 -10z m440 -21 c0 -11 -4 -17 -10 -14 -5 3 -10
15 -10 26 0 11 5 17 10 14 6 -3 10 -15 10 -26z m-112 -4 c-3 -3 -9 2 -12 12
-6 14 -5 15 5 6 7 -7 10 -15 7 -18z m-220 -30 c2 -19 -2 -35 -8 -35 -5 0 -10
-8 -10 -17 -1 -17 -1 -17 -11 0 -5 9 -7 22 -3 29 4 6 3 8 -4 4 -6 -3 -14 -2
-17 4 -4 6 -3 10 2 9 30 -5 44 2 38 21 -3 11 -2 20 2 20 5 0 10 -16 11 -35z
m539 -30 c0 -8 -4 -12 -9 -9 -5 3 -6 10 -3 15 9 13 12 11 12 -6z m-417 -15 c0
-5 -4 -10 -10 -10 -5 0 -10 -6 -10 -14 0 -8 -4 -17 -10 -21 -5 -3 -5 7 1 25
10 28 29 42 29 20z m47 -39 c0 -11 -6 -17 -14 -14 -18 7 -17 33 1 33 8 0 14
-8 13 -19z m86 4 c15 -6 16 -10 5 -16 -20 -13 -26 -11 -38 10 -10 20 -3 22 33
6z m297 11 c0 -3 -4 -8 -10 -11 -5 -3 -10 -1 -10 4 0 6 5 11 10 11 6 0 10 -2
10 -4z m-213 -31 c8 -22 0 -27 -29 -20 -14 4 -25 13 -25 21 0 19 46 18 54 -1z
m57 -73 c3 -5 -1 -9 -9 -9 -8 0 -12 4 -9 9 3 4 7 8 9 8 2 0 6 -4 9 -8z m0 -37
c-4 -8 -8 -15 -10 -15 -2 0 -4 7 -4 15 0 8 4 15 10 15 5 0 7 -7 4 -15z"/>
<path d="M7130 4356 c0 -8 5 -18 10 -21 6 -3 10 1 10 9 0 8 -4 18 -10 21 -5 3
-10 -1 -10 -9z"/>
<path d="M7180 4357 c0 -8 7 -14 15 -14 11 0 12 4 4 14 -6 7 -13 13 -15 13 -2
0 -4 -6 -4 -13z"/>
<path d="M8346 4352 c-3 -5 1 -9 9 -9 8 0 12 4 9 9 -3 4 -7 8 -9 8 -2 0 -6 -4
-9 -8z"/>
<path d="M7866 4334 c-11 -27 -7 -37 9 -24 16 14 20 40 6 40 -5 0 -12 -7 -15
-16z"/>
<path d="M7835 4300 c-3 -5 -1 -10 4 -10 6 0 11 5 11 10 0 6 -2 10 -4 10 -3 0
-8 -4 -11 -10z"/>
<path d="M7084 4253 c10 -11 37 -12 30 -2 -3 5 -12 9 -21 9 -9 0 -13 -3 -9 -7z"/>
<path d="M7750 4250 c-8 -26 -7 -41 2 -32 6 6 8 16 5 24 -3 7 -6 11 -7 8z"/>
<path d="M7006 4192 c-3 -6 -1 -14 5 -17 14 -9 20 -2 10 14 -6 8 -11 9 -15 3z"/>
<path d="M5665 4150 c-3 -5 1 -10 10 -10 9 0 13 5 10 10 -3 6 -8 10 -10 10 -2
0 -7 -4 -10 -10z"/>
<path d="M8291 3980 c14 -31 19 -36 19 -24 0 6 -7 19 -16 30 -14 18 -14 18 -3
-6z"/>
<path d="M8355 3970 c3 -5 8 -10 11 -10 2 0 4 5 4 10 0 6 -5 10 -11 10 -5 0
-7 -4 -4 -10z"/>
<path d="M8170 3870 c-8 -5 -11 -10 -6 -10 5 0 3 -7 -4 -15 -10 -12 -10 -15 1
-14 19 1 57 17 42 18 -6 1 -13 8 -15 16 -2 10 -7 12 -18 5z"/>
<path d="M8412 3838 c1 -21 5 -38 10 -38 11 0 10 41 -2 60 -7 11 -9 5 -8 -22z"/>
<path d="M8210 3789 c0 -5 5 -7 10 -4 6 3 10 8 10 11 0 2 -4 4 -10 4 -5 0 -10
-5 -10 -11z"/>
<path d="M6000 3772 c0 -5 7 -13 16 -16 10 -4 14 -1 12 6 -5 15 -28 23 -28 10z"/>
<path d="M7086 3745 c-3 -8 -1 -15 4 -15 6 0 10 7 10 15 0 8 -2 15 -4 15 -2 0
-6 -7 -10 -15z"/>
<path d="M7028 3733 c0 -5 -2 -14 -2 -22 -1 -8 -8 -16 -16 -18 -13 -4 -13 -3
0 6 9 7 10 11 3 11 -12 0 -27 -17 -29 -35 0 -5 -2 -17 -3 -25 -1 -12 -3 -13
-10 -1 -6 9 -8 5 -8 -14 0 -23 1 -25 9 -12 7 13 19 16 49 13 21 -2 42 1 46 7
3 5 1 7 -5 3 -6 -3 -14 -2 -17 4 -4 6 -15 8 -26 5 -12 -4 -19 -2 -19 7 0 9 22
13 81 15 45 1 86 6 91 11 6 6 -5 9 -29 8 -26 -1 -37 3 -35 12 3 16 -8 15 -29
-3 -15 -14 -18 -14 -33 0 -9 9 -14 21 -11 26 4 5 4 9 1 9 -3 0 -7 -3 -8 -7z"/>
<path d="M7586 3687 c3 -10 9 -15 12 -12 3 3 0 11 -7 18 -10 9 -11 8 -5 -6z"/>
<path d="M7095 3651 c-2 -5 4 -11 15 -14 11 -3 20 -2 20 3 0 12 -28 21 -35 11z"/>
<path d="M6248 3573 c3 -18 7 -21 13 -11 12 18 11 25 -4 31 -10 4 -13 -2 -9
-20z"/>
<path d="M6890 3589 c0 -15 18 -19 23 -6 3 8 -1 14 -9 14 -8 0 -14 -4 -14 -8z"/>
<path d="M6430 3577 c0 -19 10 -27 26 -20 11 4 12 9 3 19 -15 18 -29 18 -29 1z"/>
<path d="M6379 3578 c0 -2 -2 -11 -4 -21 -3 -15 -1 -16 11 -6 7 6 11 15 8 20
-5 9 -13 12 -15 7z"/>
<path d="M7340 3568 c0 -9 -4 -20 -10 -23 -12 -8 -51 -17 -65 -16 -26 3 -83 3
-117 -1 -20 -2 -35 -1 -32 1 2 2 -1 10 -7 17 -9 11 -17 9 -43 -9 -45 -33 -69
-32 -103 3 l-30 31 -17 -36 c-10 -21 -14 -44 -11 -57 6 -16 4 -19 -6 -12 -11
6 -11 4 0 -10 11 -13 23 -16 45 -11 17 3 39 8 49 10 9 2 17 0 17 -5 0 -13 29
-20 36 -8 5 7 2 8 -6 3 -9 -5 -11 -4 -6 3 5 9 13 9 28 1 16 -8 19 -8 13 1 -5
8 -3 11 6 8 8 -3 13 -10 12 -16 -2 -11 3 -10 51 3 19 5 31 4 36 -4 4 -7 32
-13 63 -14 30 -1 53 -5 50 -10 -2 -4 -9 -5 -14 -2 -5 4 -9 1 -9 -4 0 -15 12
-14 38 5 12 8 32 14 45 13 12 -1 33 3 47 8 14 6 58 8 98 6 51 -2 83 1 102 11
16 7 31 11 35 8 15 -15 152 -3 208 20 23 9 25 13 15 26 -11 13 -11 14 2 7 13
-7 13 -6 2 7 -10 13 -10 17 0 21 10 4 9 6 -2 7 -8 1 -28 4 -45 6 -56 8 -253 7
-265 -1 -9 -5 -11 -4 -6 4 9 14 -115 11 -126 -3 -13 -19 -47 -16 -63 6 -12 18
-15 19 -15 6z m-340 -87 c0 -14 -2 -14 -10 -1 -7 11 -10 11 -10 2 0 -7 -4 -11
-9 -8 -5 3 -11 -1 -15 -9 -3 -8 -15 -15 -26 -15 -12 0 -19 4 -15 10 3 5 12 7
20 3 9 -3 15 1 15 11 0 9 7 16 16 16 11 0 14 5 10 16 -5 14 -4 15 9 4 8 -7 15
-20 15 -29z"/>
<path d="M4830 3550 c0 -5 5 -10 10 -10 6 0 10 5 10 10 0 6 -4 10 -10 10 -5 0
-10 -4 -10 -10z"/>
<path d="M6497 3545 c3 -8 9 -12 14 -9 12 7 11 11 -5 17 -10 4 -13 1 -9 -8z"/>
<path d="M6465 3513 c4 -10 7 -26 7 -35 0 -10 3 -20 9 -23 5 -4 9 -16 9 -28 0
-24 37 -63 48 -52 4 4 -1 12 -10 18 -15 10 -15 12 -1 22 13 10 12 15 -11 40
-14 15 -26 34 -26 41 0 8 -5 14 -11 14 -5 0 -7 5 -4 10 3 6 1 10 -5 10 -8 0
-9 -7 -5 -17z"/>
<path d="M6780 3466 c0 -8 7 -16 15 -20 13 -4 14 -2 5 14 -13 23 -20 26 -20 6z"/>
<path d="M6837 3457 c-9 -11 -17 -26 -17 -32 0 -6 3 -6 8 1 4 6 15 10 24 9 21
-4 31 20 15 34 -9 7 -17 3 -30 -12z"/>
<path d="M6756 3455 c-3 -9 -3 -22 1 -28 4 -7 -1 -6 -10 2 -11 9 -17 10 -17 2
0 -6 3 -11 8 -12 4 0 14 -2 23 -4 12 -2 15 4 13 22 -3 32 -10 38 -18 18z"/>
<path d="M6390 3441 c0 -5 7 -11 14 -14 10 -4 13 -1 9 9 -6 15 -23 19 -23 5z"/>
<path d="M6594 3411 c23 -25 22 -25 30 -4 4 10 4 14 0 11 -4 -4 -16 -2 -28 4
-21 11 -21 11 -2 -11z"/>
<path d="M6650 3406 c0 -2 7 -9 15 -16 9 -7 15 -8 15 -2 0 5 -7 12 -15 16 -8
3 -15 4 -15 2z"/>
<path d="M7183 3387 c-9 -15 1 -15 32 -2 l30 13 -28 -1 c-16 -1 -31 -5 -34
-10z"/>
<path d="M6945 3326 c8 -12 12 -26 8 -29 -3 -4 -2 -7 3 -7 12 0 34 21 34 31 0
4 -13 12 -30 17 -29 11 -30 11 -15 -12z"/>
<path d="M6633 3303 c0 -9 4 -10 12 -3 7 5 15 7 18 3 4 -3 7 -1 7 5 0 6 -8 10
-18 9 -10 0 -19 -7 -19 -14z"/>
<path d="M6606 3283 c-6 -14 -5 -15 5 -6 7 7 10 15 7 18 -3 3 -9 -2 -12 -12z"/>
<path d="M5450 2929 c0 -5 5 -7 10 -4 6 3 10 8 10 11 0 2 -4 4 -10 4 -5 0 -10
-5 -10 -11z"/>
<path d="M5792 2871 c1 -17 -2 -34 -5 -38 -4 -3 -7 3 -7 14 0 27 -23 35 -47
18 -10 -9 -13 -14 -5 -15 6 0 12 -9 12 -19 0 -11 5 -23 12 -27 7 -4 8 -3 4 4
-12 19 28 14 45 -5 16 -19 19 -27 19 -45 0 -6 3 -8 7 -5 3 4 12 2 19 -4 11 -9
16 -6 23 12 5 14 5 25 0 27 -5 2 -9 8 -9 14 0 5 -9 17 -20 26 -11 10 -26 30
-34 46 l-15 29 1 -32z m23 -50 c2 -12 0 -19 -6 -16 -5 4 -9 16 -9 27 0 26 9
19 15 -11z"/>
<path d="M5530 2880 c-9 -6 -10 -10 -3 -10 6 0 15 5 18 10 8 12 4 12 -15 0z"/>
<path d="M5680 2850 c0 -5 5 -10 11 -10 5 0 7 5 4 10 -3 6 -8 10 -11 10 -2 0
-4 -4 -4 -10z"/>
<path d="M5696 2809 c14 -16 14 -18 -3 -29 -16 -10 -16 -10 3 -5 20 5 54 -16
54 -33 0 -3 -5 -1 -12 6 -7 7 -18 12 -26 12 -12 0 -12 -3 -2 -15 7 -8 21 -15
31 -15 13 0 19 -7 20 -22 0 -21 1 -22 8 -3 8 19 8 19 20 0 9 -15 11 -16 7 -3
-3 10 -2 19 2 22 4 3 9 -3 10 -12 1 -9 3 -25 4 -36 4 -24 -27 -30 -47 -9 -19
18 -41 7 -24 -13 6 -7 9 -21 5 -29 -3 -9 0 -15 9 -15 8 0 15 5 15 11 0 8 5 8
15 -1 8 -7 15 -9 15 -5 0 4 11 0 25 -9 23 -15 25 -15 25 -1 0 9 -3 14 -7 12
-5 -3 -14 2 -22 10 -11 13 -10 14 10 11 30 -4 31 14 6 65 -14 26 -24 36 -35
32 -9 -3 -21 4 -31 17 -8 13 -15 24 -13 26 5 5 -33 39 -40 35 -5 -2 -8 0 -8 5
0 5 -7 9 -15 9 -13 0 -13 -3 1 -18z"/>
<path d="M5780 2670 c0 -5 7 -7 15 -4 8 4 15 8 15 10 0 2 -7 4 -15 4 -8 0 -15
-4 -15 -10z"/>
<path d="M9510 2670 c0 -5 5 -10 11 -10 5 0 7 5 4 10 -3 6 -8 10 -11 10 -2 0
-4 -4 -4 -10z"/>
<path d="M9495 2630 c3 -5 8 -10 11 -10 2 0 4 5 4 10 0 6 -5 10 -11 10 -5 0
-7 -4 -4 -10z"/>
<path d="M5990 2574 c0 -4 10 -15 22 -25 23 -20 54 -26 43 -8 -4 6 -10 8 -13
5 -3 -3 -11 3 -19 14 -13 19 -33 27 -33 14z"/>
<path d="M5860 2511 c0 -8 19 -37 21 -31 0 3 2 12 4 21 1 9 -4 16 -11 16 -8 0
-14 -3 -14 -6z"/>
<path d="M9324 2434 c-18 -14 -18 -15 4 -4 12 6 22 13 22 15 0 8 -5 6 -26 -11z"/>
<path d="M5990 2406 c0 -12 6 -23 13 -23 18 0 19 34 1 41 -10 4 -14 -2 -14
-18z"/>
<path d="M6031 2394 c0 -11 3 -14 6 -6 3 7 2 16 -1 19 -3 4 -6 -2 -5 -13z"/>
<path d="M9212 2318 c-15 -15 -15 -28 0 -28 6 0 8 3 5 7 -4 3 -2 12 4 20 14
16 7 17 -9 1z"/>
<path d="M6092 2289 c2 -6 8 -10 13 -10 5 0 11 4 13 10 2 6 -4 11 -13 11 -9 0
-15 -5 -13 -11z"/>
<path d="M6370 2050 c0 -5 5 -10 11 -10 5 0 7 5 4 10 -3 6 -8 10 -11 10 -2 0
-4 -4 -4 -10z"/>
<path d="M7535 1850 c4 -6 19 -9 35 -8 36 3 30 10 -11 15 -18 2 -28 -1 -24 -7z"/>
<path d="M7231 1794 c0 -11 3 -14 6 -6 3 7 2 16 -1 19 -3 4 -6 -2 -5 -13z"/>
<path d="M7905 1800 c3 -5 8 -10 11 -10 2 0 4 5 4 10 0 6 -5 10 -11 10 -5 0
-7 -4 -4 -10z"/>
<path d="M10202 248 c-6 -6 -12 -18 -12 -25 0 -12 -16 -17 -49 -16 -18 1 -16
0 146 -110 l142 -97 96 0 c52 0 95 3 95 8 -1 33 -223 202 -298 226 -76 24
-106 28 -120 14z"/>
</g>
</svg>
